<svg width="56" height="48" viewBox="0 0 56 48" fill="none" xmlns="http://www.w3.org/2000/svg">
<path opacity="0.2" d="M22.768 34.968C22.768 39.2347 21.7013 42.392 19.568 44.44C17.4773 46.4453 14.768 47.448 11.44 47.448C8.112 47.448 5.38133 46.4453 3.248 44.44C1.15733 42.392 0.112 39.2347 0.112 34.968V13.464C0.112 9.19733 1.15733 6.06133 3.248 4.056C5.38133 2.008 8.112 0.983997 11.44 0.983997C14.768 0.983997 17.4773 2.008 19.568 4.056C21.7013 6.06133 22.768 9.19733 22.768 13.464V34.968ZM14.704 34.904V13.592C14.704 11.672 14.448 10.3067 13.936 9.496C13.4667 8.68533 12.6347 8.28 11.44 8.28C10.2453 8.28 9.392 8.68533 8.88 9.496C8.368 10.3067 8.112 11.672 8.112 13.592V34.904C8.112 36.824 8.368 38.1893 8.88 39C9.392 39.768 10.2453 40.152 11.44 40.152C12.6347 40.152 13.4667 39.768 13.936 39C14.448 38.1893 14.704 36.824 14.704 34.904ZM55.729 13.08C55.729 15.2133 55.3877 17.1547 54.705 18.904C54.0223 20.6533 52.9557 22.7013 51.505 25.048L42.353 39.64H55.409V47H33.201V39.64L45.297 20.312C46.8757 17.7093 47.665 15.2773 47.665 13.016C47.665 11.3093 47.409 10.0933 46.897 9.368C46.385 8.64267 45.553 8.28 44.401 8.28C43.2917 8.28 42.4383 8.728 41.841 9.624C41.2437 10.4773 40.9237 12.0347 40.881 14.296H32.881C32.881 9.85867 33.905 6.53067 35.953 4.312C38.0437 2.09333 40.881 0.983997 44.465 0.983997C51.9743 0.983997 55.729 5.016 55.729 13.08Z" fill="#6F6EFF"/>
</svg>
