<svg width="56" height="48" viewBox="0 0 56 48" fill="none" xmlns="http://www.w3.org/2000/svg">
<path opacity="0.2" d="M22.768 34.968C22.768 39.2347 21.7013 42.392 19.568 44.44C17.4773 46.4453 14.768 47.448 11.44 47.448C8.112 47.448 5.38133 46.4453 3.248 44.44C1.15733 42.392 0.112 39.2347 0.112 34.968V13.464C0.112 9.19733 1.15733 6.06133 3.248 4.056C5.38133 2.008 8.112 0.983997 11.44 0.983997C14.768 0.983997 17.4773 2.008 19.568 4.056C21.7013 6.06133 22.768 9.19733 22.768 13.464V34.968ZM14.704 34.904V13.592C14.704 11.672 14.448 10.3067 13.936 9.496C13.4667 8.68533 12.6347 8.28 11.44 8.28C10.2453 8.28 9.392 8.68533 8.88 9.496C8.368 10.3067 8.112 11.672 8.112 13.592V34.904C8.112 36.824 8.368 38.1893 8.88 39C9.392 39.768 10.2453 40.152 11.44 40.152C12.6347 40.152 13.4667 39.768 13.936 39C14.448 38.1893 14.704 36.824 14.704 34.904ZM55.857 35.16C55.857 43.352 51.953 47.448 44.145 47.448C36.2517 47.448 32.305 43.16 32.305 34.584V33.944H40.369V34.328C40.369 36.376 40.6463 37.8693 41.201 38.808C41.7983 39.704 42.7583 40.152 44.081 40.152C45.4037 40.152 46.3637 39.704 46.961 38.808C47.5583 37.8693 47.857 36.376 47.857 34.328V32.792C47.857 30.8293 47.5157 29.4213 46.833 28.568C46.193 27.7147 45.105 27.288 43.569 27.288H41.969V20.056H43.569C44.977 20.056 45.9583 19.6507 46.513 18.84C47.1103 17.9867 47.409 16.6427 47.409 14.808V13.4C47.409 11.608 47.1317 10.3067 46.577 9.496C46.065 8.68533 45.233 8.28 44.081 8.28C42.929 8.28 42.0757 8.68533 41.521 9.496C41.009 10.3067 40.753 11.608 40.753 13.4V14.104H32.689V13.272C32.689 9.176 33.713 6.104 35.761 4.056C37.8517 1.96533 40.6463 0.919998 44.145 0.919998C51.6543 0.919998 55.409 4.86666 55.409 12.76V14.936C55.409 19.288 53.745 22.1253 50.417 23.448C52.0383 23.96 53.3397 25.0053 54.321 26.584C55.345 28.12 55.857 30.168 55.857 32.728V35.16Z" fill="#6F6EFF"/>
</svg>
