<svg width="57" height="48" viewBox="0 0 57 48" fill="none" xmlns="http://www.w3.org/2000/svg">
<path opacity="0.2" d="M22.768 34.968C22.768 39.2347 21.7013 42.392 19.568 44.44C17.4773 46.4453 14.768 47.448 11.44 47.448C8.112 47.448 5.38133 46.4453 3.248 44.44C1.15733 42.392 0.112 39.2347 0.112 34.968V13.464C0.112 9.19733 1.15733 6.06133 3.248 4.056C5.38133 2.008 8.112 0.983997 11.44 0.983997C14.768 0.983997 17.4773 2.008 19.568 4.056C21.7013 6.06133 22.768 9.19733 22.768 13.464V34.968ZM14.704 34.904V13.592C14.704 11.672 14.448 10.3067 13.936 9.496C13.4667 8.68533 12.6347 8.28 11.44 8.28C10.2453 8.28 9.392 8.68533 8.88 9.496C8.368 10.3067 8.112 11.672 8.112 13.592V34.904C8.112 36.824 8.368 38.1893 8.88 39C9.392 39.768 10.2453 40.152 11.44 40.152C12.6347 40.152 13.4667 39.768 13.936 39C14.448 38.1893 14.704 36.824 14.704 34.904ZM56.625 40.536H54.001V47H46.385V40.536H32.177V33.24L43.953 1.432H52.337L40.625 33.24H46.385V24.792H54.001V33.24H56.625V40.536Z" fill="#6F6EFF"/>
</svg>
