<svg width="38" height="38" viewBox="0 0 38 38" fill="none" xmlns="http://www.w3.org/2000/svg">
<path d="M18.625 18.6251L17.5724 17.5565L18.625 18.6251ZM18.625 3.125C27.1854 3.125 34.125 10.0646 34.125 18.625H37.125C37.125 8.40772 28.8423 0.125 18.625 0.125V3.125ZM34.125 18.625C34.125 27.1854 27.1854 34.125 18.625 34.125L18.625 37.125C28.8423 37.125 37.125 28.8423 37.125 18.625H34.125ZM18.625 34.125C10.0646 34.125 3.125 27.1854 3.125 18.625H0.125C0.125 28.8423 8.40773 37.125 18.625 37.125L18.625 34.125ZM3.125 18.625C3.125 10.0646 10.0646 3.125 18.625 3.125V0.125C8.40773 0.125 0.125 8.40773 0.125 18.625H3.125ZM25.9143 23.7931L13.5498 11.4295L11.4286 13.5509L23.7931 25.9145L25.9143 23.7931ZM13.4489 25.8287L19.6776 19.6938L17.5724 17.5565L11.3437 23.6914L13.4489 25.8287ZM19.6776 19.6938L25.9063 13.5589L23.8011 11.4215L17.5724 17.5565L19.6776 19.6938Z" fill="#6F6EFF"/>
</svg>
