<svg width="27" height="27" viewBox="0 0 27 27" fill="none" xmlns="http://www.w3.org/2000/svg">
<path fill-rule="evenodd" clip-rule="evenodd" d="M27 13.5C27 20.9558 20.9558 27 13.5 27C6.04416 27 0 20.9558 0 13.5C0 6.04416 6.04416 0 13.5 0C20.9558 0 27 6.04416 27 13.5ZM18.695 12.5508L17.9042 11.6508C17.6858 11.4024 17.3078 11.3784 17.0582 11.5956L14.7002 13.662V5.1C14.7002 4.7688 14.4314 4.5 14.1002 4.5H12.9002C12.569 4.5 12.3002 4.7688 12.3002 5.1V13.662L9.9422 11.5956C9.6938 11.3784 9.3158 11.4024 9.0962 11.6508L8.3054 12.5496C8.0858 12.7992 8.111 13.1796 8.3606 13.398L13.1054 17.5512C13.3322 17.7492 13.6694 17.7492 13.8962 17.5512L18.6398 13.398C18.8894 13.1796 18.9146 12.7992 18.695 12.5508ZM6.89956 20.0999H20.0996C20.4308 20.0999 20.6996 20.3687 20.6996 20.6999V21.8999C20.6996 22.2311 20.4308 22.4999 20.0996 22.4999H6.89956C6.56836 22.4999 6.29956 22.2311 6.29956 21.8999V20.6999C6.29956 20.3687 6.56836 20.0999 6.89956 20.0999Z" fill="#6F6EFF"/>
</svg>
