<svg width="45" height="46" viewBox="0 0 45 46" fill="none" xmlns="http://www.w3.org/2000/svg">
<mask id="path-1-inside-1" fill="white">
<path d="M22.2377 0.871582C34.4433 0.871581 44.3379 10.7662 44.3379 22.9718C44.3379 35.1774 34.4433 45.072 22.2377 45.072C10.0321 45.072 0.137452 35.1774 0.137451 22.9718C0.137451 10.7662 10.0321 0.871583 22.2377 0.871582Z"/>
</mask>
<path d="M22.2377 3.32716C33.0871 3.32716 41.8823 12.1224 41.8823 22.9718H46.7935C46.7935 9.41 35.7995 -1.584 22.2377 -1.584L22.2377 3.32716ZM41.8823 22.9718C41.8823 33.8212 33.0871 42.6165 22.2377 42.6165V47.5276C35.7995 47.5276 46.7935 36.5336 46.7935 22.9718H41.8823ZM22.2377 42.6165C11.3882 42.6165 2.59303 33.8213 2.59303 22.9718L-2.31813 22.9718C-2.31813 36.5336 8.67588 47.5276 22.2377 47.5276V42.6165ZM2.59303 22.9718C2.59303 12.1224 11.3882 3.32716 22.2377 3.32716L22.2377 -1.584C8.67588 -1.584 -2.31813 9.41 -2.31813 22.9718L2.59303 22.9718Z" fill="#FF8900" mask="url(#path-1-inside-1)"/>
<path d="M15.3684 16.4771L29.1021 30.4489" stroke="#FF8900" stroke-width="2.45558" stroke-linecap="round" stroke-linejoin="round"/>
<path d="M28.6045 16.4771L14.8708 30.4489" stroke="#FF8900" stroke-width="2.45558" stroke-linecap="round" stroke-linejoin="round"/>
</svg>
