<svg width="46" height="56" viewBox="0 0 46 56" fill="none" xmlns="http://www.w3.org/2000/svg">
<g clip-path="url(#clip0)">
<path d="M32.8703 9.4209C32.8703 9.4209 32.0554 10.6036 32.0498 10.6241L8.34281 47.0607C8.10462 47.2624 7.96484 47.4721 7.93475 47.6875L7.92786 47.6975H7.93287C7.92974 47.7236 7.92786 47.7498 7.92786 47.7753C7.92786 49.4049 14.1948 50.7264 21.9248 50.7264C29.6547 50.7264 35.9217 49.4055 35.9217 47.7753C35.9217 47.7491 35.9198 47.7236 35.9167 47.6975H35.9217L36.2113 38.2477L37.0299 9.4209H32.8446L8.36162 47.0806L32.8452 9.4209H32.8703Z" fill="white"/>
</g>
<g clip-path="url(#clip1)">
<path d="M-0.00378418 32.9396C-0.00378418 45.642 10.2931 55.9402 22.9956 55.9402C27.9319 55.9402 32.7373 54.3522 36.7015 51.4108C40.6658 48.4695 43.5787 44.3308 45.0097 39.6064C46.4407 34.8821 46.3139 29.8227 44.6481 25.176C42.9823 20.5293 39.8658 16.5417 35.7591 13.8026L34.7608 46.7143C34.7608 46.7397 34.7608 46.7665 34.7608 46.7932C34.7608 48.4245 28.5299 49.7476 20.8422 49.7476C13.1545 49.7476 6.92366 48.4245 6.92366 46.7958C6.92366 46.769 6.92366 46.7435 6.92366 46.7168V46.7066C6.97704 46.4544 7.12171 46.2309 7.32988 46.0788L29.988 11.0201C27.7281 10.3016 25.3707 9.9369 22.9994 9.93897C10.297 9.93897 -0.00378418 20.2372 -0.00378418 32.9396Z" fill="#6F6EFF"/>
<path d="M29.6569 38.405H26.9279V36.6082C26.9277 36.4304 26.8748 36.2566 26.776 36.1088C26.6771 35.961 26.5367 35.8457 26.3724 35.7776C26.2081 35.7095 26.0274 35.6916 25.8529 35.7261C25.6785 35.7606 25.5181 35.846 25.3922 35.9715L21.7947 39.5702C21.7109 39.6537 21.6445 39.753 21.5991 39.8622C21.5538 39.9715 21.5304 40.0886 21.5304 40.2069C21.5304 40.3252 21.5538 40.4424 21.5991 40.5516C21.6445 40.6609 21.7109 40.7601 21.7947 40.8436L23.8577 42.9066L21.3439 45.4191C21.2603 45.5027 21.194 45.6019 21.1487 45.7112C21.1035 45.8204 21.0802 45.9375 21.0802 46.0558C21.0802 46.174 21.1035 46.2911 21.1487 46.4004C21.194 46.5096 21.2603 46.6089 21.3439 46.6925C21.4275 46.7761 21.5268 46.8424 21.6361 46.8877C21.7453 46.9329 21.8624 46.9562 21.9806 46.9562C22.0989 46.9562 22.216 46.9329 22.3252 46.8877C22.4345 46.8424 22.5337 46.7761 22.6174 46.6925L25.7665 43.5433C25.8503 43.4598 25.9168 43.3606 25.9622 43.2513C26.0075 43.142 26.0309 43.0249 26.0309 42.9066C26.0309 42.7883 26.0075 42.6712 25.9622 42.5619C25.9168 42.4526 25.8503 42.3534 25.7665 42.2699L23.7036 40.2069L25.1298 38.773V39.3002C25.1298 39.5387 25.2246 39.7674 25.3932 39.936C25.5618 40.1046 25.7904 40.1993 26.0289 40.1993H29.6569C29.7779 40.2038 29.8985 40.1839 30.0117 40.1408C30.1248 40.0976 30.228 40.0321 30.3153 39.9481C30.4025 39.8641 30.4718 39.7634 30.5192 39.6519C30.5666 39.5405 30.591 39.4207 30.591 39.2996C30.591 39.1785 30.5666 39.0587 30.5192 38.9473C30.4718 38.8358 30.4025 38.7351 30.3153 38.6511C30.228 38.5671 30.1248 38.5016 30.0117 38.4584C29.8985 38.4153 29.7779 38.3954 29.6569 38.3999V38.405Z" fill="#6F6EFF"/>
<path d="M23.6042 33.8334C23.4311 33.7184 23.2235 33.6669 23.0167 33.6876C22.8098 33.7082 22.6165 33.7998 22.4696 33.9468L19.9953 36.4197C19.9117 36.5034 19.8454 36.6026 19.8001 36.7119C19.7549 36.8211 19.7316 36.9382 19.7316 37.0565C19.7316 37.1747 19.7549 37.2918 19.8001 37.401C19.8454 37.5103 19.9117 37.6095 19.9953 37.6932C20.0789 37.7768 20.1782 37.8431 20.2874 37.8884C20.3967 37.9336 20.5138 37.9569 20.632 37.9569C20.7503 37.9569 20.8674 37.9336 20.9766 37.8884C21.0859 37.8431 21.1851 37.7768 21.2687 37.6932L23.2209 35.741L23.8793 36.2147L24.7579 35.3361C24.9058 35.1903 25.0782 35.0717 25.2673 34.9859L23.6042 33.8334Z" fill="#6F6EFF"/>
<path d="M21.1579 41.4767C20.9355 41.2519 20.7768 40.9719 20.6982 40.6655L15.9471 45.4167C15.7782 45.5856 15.6833 45.8146 15.6833 46.0534C15.6833 46.2922 15.7782 46.5212 15.9471 46.6901C16.116 46.859 16.345 46.9538 16.5838 46.9538C16.8226 46.9538 17.0516 46.859 17.2205 46.6901L21.7959 42.1147L21.1579 41.4767Z" fill="#6F6EFF"/>
<path d="M27.3786 35.7065C28.1241 35.7065 28.7285 35.1022 28.7285 34.3567C28.7285 33.6112 28.1241 33.0068 27.3786 33.0068C26.6332 33.0068 26.0288 33.6112 26.0288 34.3567C26.0288 35.1022 26.6332 35.7065 27.3786 35.7065Z" fill="#6F6EFF"/>
<path d="M8.61094 5.43599L7.45085 0.790527H6.22963L5.07845 5.43599L3.91581 0.790527H2.69714L4.46848 7.87714H5.68842L6.8396 3.23041L8.00224 7.87714H9.22218L10.9846 0.790527H9.77358L8.61094 5.43599Z" fill="#6F6EFF"/>
<path d="M11.969 7.87715H12.5586V7.88733H16.2006V6.69541H13.1495V4.92407H15.611V3.7436H13.1495V1.97099H16.2006V0.790527H11.969V7.87715Z" fill="#6F6EFF"/>
<path d="M21.4763 4.07752C21.659 3.90223 21.8016 3.68933 21.894 3.45354C21.9879 3.2204 22.0363 2.97141 22.0366 2.72005C22.042 2.29587 21.8952 1.88381 21.6227 1.55868C21.4279 1.31642 21.1804 1.12172 20.8991 0.989334C20.6177 0.85695 20.31 0.790364 19.9991 0.794626H17.5796V7.87742H20.1481C20.5316 7.88165 20.9096 7.78692 21.2458 7.60236C21.5733 7.42115 21.848 7.15784 22.0429 6.83831C22.2443 6.5168 22.3519 6.14545 22.3537 5.76608C22.3414 5.43051 22.2576 5.10142 22.1079 4.80083C21.9632 4.50933 21.7456 4.26017 21.4763 4.07752ZM18.7499 1.82355H19.8234C19.9023 1.82355 19.9762 1.82355 20.0449 1.83247C20.1181 1.84051 20.1895 1.86029 20.2563 1.89105C20.4221 1.95928 20.5605 2.08067 20.6498 2.23614C20.7407 2.38704 20.7887 2.55984 20.7887 2.73596C20.7887 2.91209 20.7407 3.08489 20.6498 3.23578C20.5619 3.39325 20.4232 3.51626 20.2563 3.5847C20.1977 3.60813 20.1366 3.62479 20.0742 3.63437C20.0079 3.64722 19.9406 3.65403 19.873 3.65474H18.7499V1.82355ZM20.9389 6.35186C20.8288 6.5372 20.6618 6.68194 20.4626 6.76445C20.3686 6.80277 20.2687 6.82473 20.1672 6.82939C20.0398 6.83831 19.8679 6.8434 19.6464 6.8434H18.755V4.68876H19.6464C19.8819 4.68876 20.0539 4.68876 20.1634 4.70277C20.2659 4.71181 20.3668 4.73362 20.4639 4.76772C20.6629 4.84329 20.8307 4.9837 20.9402 5.1663C21.0487 5.34552 21.1052 5.55146 21.1032 5.76099C21.1028 5.96917 21.046 6.17335 20.9389 6.35186Z" fill="#6F6EFF"/>
<path d="M24.9121 0.790527H23.7303V7.88733H24.9121V0.790527Z" fill="#6F6EFF"/>
<path d="M31.0385 4.51783C31.2596 4.08922 31.3695 3.61194 31.3582 3.12979C31.3582 2.44129 31.1761 1.88056 30.8119 1.4476C30.4477 1.01463 29.9383 0.797724 29.2837 0.796875H26.6821V7.87713H27.8142V5.51492H28.9603L30.1064 7.87713H31.3569L30.1267 5.3481C30.5187 5.18701 30.8415 4.89307 31.0385 4.51783ZM29.8772 4.1358C29.7681 4.25714 29.6329 4.35215 29.4818 4.41369C29.3307 4.47523 29.1677 4.50169 29.0049 4.49109H27.8142V1.82453H29.0049C29.1659 1.81453 29.3272 1.84028 29.4771 1.89995C29.627 1.95961 29.7619 2.0517 29.8721 2.16963C30.0758 2.40012 30.1764 2.72484 30.1764 3.14507C30.1764 3.5653 30.0771 3.90149 29.8772 4.1358Z" fill="#6F6EFF"/>
<path d="M33.8693 0.790527L31.7045 7.87715H32.876L33.4669 5.95809H35.9068L36.4862 7.87715H37.6577L35.4929 0.790527H33.8693ZM33.8285 4.77253L34.6856 1.97099L35.5426 4.77253H33.8285Z" fill="#6F6EFF"/>
<path d="M40.3753 3.75379L38.7605 0.790527H37.412L39.7653 4.92407V7.87714H40.9368V4.92407L43.3181 0.790527H42.0574L40.3753 3.75379Z" fill="#6F6EFF"/>
</g>
<defs>
<clipPath id="clip0">
<rect width="29.102" height="41.3055" fill="white" transform="translate(7.92786 9.4209)"/>
</clipPath>
<clipPath id="clip1">
<rect width="46" height="55.1496" fill="white" transform="translate(0 0.790527)"/>
</clipPath>
</defs>
</svg>
