<svg width="51" height="43" viewBox="0 0 51 43" fill="none" xmlns="http://www.w3.org/2000/svg">
<path fill-rule="evenodd" clip-rule="evenodd" d="M50.9783 28.7547L49.6578 19.673L49.5778 19.1239H49.004H38.0145H37.2176L37.8565 18.6596L43.0587 14.9045L44.6569 13.754H42.6646H30.3596H30.1668L30.108 13.5706L26.2573 1.87937L25.6388 0L25.0018 1.87155L21.0197 13.573L20.9596 13.754H20.7687H8.45745H6.45711L8.06395 14.9045L13.2897 18.662L13.9324 19.1239H13.1323H2.11808H1.55355L1.46555 19.6633L0.0123937 28.6157L0 28.6933L0.00743621 28.7721L0.140049 30.201L0.21565 31.0165L0.975383 30.7838L1.07205 30.7537C2.51902 30.3069 4.16428 29.8979 5.96198 29.5377L6.42303 29.4451L6.26377 29.8751L3.87303 36.3341L3.51299 37.306L4.57017 37.1875L6.38399 36.9842C9.14406 36.6745 11.9078 36.4273 14.5991 36.2505L14.9592 36.2271V39.0536V39.2653V39.5498L15.3967 40.0165C16.1831 40.9522 17.5668 41.6998 19.5089 42.2398C21.2967 42.7372 23.4216 43 25.6524 43C27.768 43 29.8118 42.748 31.5605 42.2717C33.3886 41.7738 34.8027 41.0479 35.6504 40.1716L35.6579 40.1638L35.6653 40.156L35.8227 39.9786L36.039 39.7374V39.4145V39.1709V36.2283L36.0588 36.221L36.5205 36.2511C39.2111 36.4279 41.9749 36.6751 44.735 36.9848L46.5494 37.1887L47.6078 37.3078L47.2466 36.3347L44.8366 29.845L44.6774 29.4156L45.1378 29.507C46.8116 29.8384 48.3583 30.2125 49.7352 30.6196L50.3524 30.8018L50.5551 30.2077L50.951 29.0464L50.9994 28.9038L50.9783 28.7547Z" fill="#84856F"/>
<path d="M50.3394 28.8282L49.0182 19.7428C49.0182 19.7428 41.6781 19.7428 35.234 19.7428L42.6758 14.3651H29.6915L25.6338 2.05029L21.4411 14.3651H8.45619L15.9345 19.7428C9.44645 19.7428 2.11435 19.7428 2.11435 19.7428L0.660568 28.6983L0.793181 30.1272H0.867543C2.76625 29.5414 4.97853 29.0242 7.43309 28.5912L4.49207 36.5369L6.30651 36.333C9.07712 36.0221 11.8527 35.7743 14.5557 35.5963L15.388 35.5416C15.388 35.5416 15.5466 35.5362 15.8335 35.5265V39.0537V39.1716L16.0312 39.4326C16.861 40.4634 18.5248 41.0853 19.7481 41.4257C21.4584 41.9014 23.5102 42.1528 25.6512 42.1528C27.6831 42.1528 29.65 41.9116 31.3232 41.4557C33.0056 40.9975 34.2698 40.3528 35.0066 39.592L35.1646 39.4146V39.171V35.4935C35.3579 35.5079 35.542 35.5241 35.7167 35.541C35.9305 35.5614 36.5744 35.5969 36.5744 35.5969C39.2774 35.7749 42.053 36.0227 44.8236 36.3336L46.6386 36.5375L43.6772 28.5648C46.0004 28.9689 48.1085 29.4488 49.9422 29.9907L50.3394 28.8282Z" fill="#252525"/>
<path d="M25.6432 19.7331L33.5906 19.6964L39.8358 15.249L25.6704 19.6964L25.6432 19.7331Z" fill="#DE3131"/>
<path d="M39.8358 15.249H29.026L25.6704 19.6964L39.8358 15.249Z" fill="url(#paint0_linear)"/>
<path d="M25.6704 19.6966L29.026 15.2492L25.5985 5.11084V19.7194L25.6704 19.6966Z" fill="#DE3131"/>
<path d="M25.5985 19.7194V5.11084L22.171 15.2492L25.5266 19.6966L25.5985 19.7194Z" fill="url(#paint1_linear)"/>
<path d="M22.1711 15.249H11.3613L25.5266 19.6964L22.1711 15.249Z" fill="#DE3131"/>
<path d="M25.5266 19.6964L11.3613 15.249L17.6065 19.6964L25.5539 19.7331L25.5266 19.6964Z" fill="url(#paint2_linear)"/>
<path d="M38.4879 29.157C34.1972 28.5808 29.948 28.2945 25.6988 28.2939C21.4497 28.2939 17.2005 28.5808 12.9098 29.1564C12.4326 30.8812 11.9177 32.7401 11.3618 34.7512C20.9923 33.3078 30.4054 33.3078 40.0359 34.7512C39.4794 32.7407 38.9651 30.8818 38.4879 29.157Z" fill="#252525"/>
<path d="M36.7268 34.5651C39.4522 34.7461 42.2147 34.9957 45.025 35.3144C44.256 33.2438 43.5452 31.3314 42.8871 29.559C40.3972 29.3065 37.9438 29.1086 35.5203 28.9649C35.519 28.9564 39.8977 33.6101 39.8859 33.5704C39.8729 33.5241 36.7249 34.5549 36.7268 34.5651ZM6.26869 35.3144C9.07896 34.9957 11.8415 34.7461 14.5669 34.5651C14.5687 34.5543 11.4207 33.5241 11.4077 33.5704C11.396 33.6101 15.7746 28.9564 15.7734 28.9649C13.3498 29.1086 10.8965 29.3065 8.4066 29.559C7.7485 31.3314 7.03772 33.2438 6.26869 35.3144Z" fill="#671717"/>
<path d="M38.4879 28.0251C34.1972 27.449 29.948 27.1627 25.6988 27.1621C21.4497 27.1621 17.2005 27.449 12.9098 28.0251C12.4326 29.7499 11.9177 31.6088 11.3618 33.6199C20.9923 32.1766 30.4054 32.1766 40.0359 33.6199C39.4794 31.6094 38.9651 29.7499 38.4879 28.0251Z" fill="#DE3131"/>
<path d="M15.8614 29.7372C16.3107 29.6957 16.76 29.6572 17.2092 29.6211C17.1913 29.7083 17.1727 29.7961 17.1547 29.8833C17.045 29.9795 16.9359 30.0757 16.8263 30.172C16.4619 30.202 16.0975 30.2345 15.7338 30.2688C15.6898 30.451 15.6458 30.6326 15.6024 30.8149C15.9711 30.78 16.3404 30.7469 16.7098 30.7156C16.7829 30.8004 16.8554 30.8852 16.9285 30.97C16.9087 31.0632 16.8895 31.1571 16.8696 31.2503C16.4018 31.2888 15.9345 31.3309 15.4673 31.376C15.4208 31.5684 15.375 31.7603 15.3285 31.9527C15.9915 31.8878 16.6552 31.8294 17.3189 31.7771C17.3927 31.4006 17.4664 31.0247 17.5401 30.6489C17.4664 30.5647 17.3927 30.4811 17.3189 30.3969C17.428 30.3001 17.537 30.2032 17.6461 30.107C17.7143 29.76 17.7824 29.4124 17.85 29.0654C17.2284 29.1111 16.6075 29.1622 15.9872 29.2188C15.9451 29.392 15.9029 29.5646 15.8614 29.7372ZM19.0193 31.6574C19.6836 31.6159 20.3485 31.581 21.0135 31.5522C21.0544 31.1799 21.0946 30.8076 21.1355 30.436C21.0537 30.35 20.9719 30.264 20.8902 30.178C20.9918 30.0854 21.0928 29.9928 21.1944 29.9001C21.2322 29.5567 21.2694 29.2127 21.3072 28.8694C20.685 28.8946 20.0629 28.9253 19.4413 28.9614C19.3007 29.8592 19.16 30.7577 19.0193 31.6574ZM19.9011 29.4419C20.1713 29.4274 20.4415 29.4136 20.7117 29.4016C20.7011 29.4882 20.6906 29.5742 20.6801 29.6608C20.5785 29.7528 20.4762 29.8448 20.3746 29.9374C20.1918 29.9464 20.0096 29.9561 19.8268 29.9657C19.8509 29.7907 19.8763 29.6163 19.9011 29.4419ZM19.7493 30.5027C19.9346 30.4925 20.1193 30.4829 20.3046 30.4733C20.3857 30.5599 20.4669 30.6471 20.5481 30.7337C20.5369 30.8263 20.5252 30.9183 20.514 31.0109C20.2327 31.0241 19.9519 31.0392 19.6706 31.0548C19.6966 30.8714 19.7227 30.6874 19.7493 30.5027ZM22.7176 31.492C23.3831 31.474 24.0487 31.4626 24.7142 31.4572C24.7179 31.2695 24.7217 31.0819 24.726 30.8936C24.2569 30.8973 23.7884 30.9045 23.3193 30.9141C23.3292 30.7313 23.3391 30.5484 23.3497 30.3656C23.812 30.356 24.2749 30.3494 24.7378 30.3458C24.7415 30.1678 24.7452 29.9897 24.7489 29.8123C24.2922 29.8159 23.8361 29.8226 23.3794 29.8316C23.3887 29.6584 23.3986 29.4846 23.4079 29.3114C23.8584 29.3024 24.309 29.2957 24.7595 29.2921C24.7632 29.1231 24.7663 28.9541 24.77 28.7852C24.1472 28.79 23.525 28.8002 22.9023 28.8158C22.8403 29.7083 22.779 30.6002 22.7176 31.492ZM28.045 30.1028C28.1305 30.0168 28.2167 29.9308 28.3022 29.8448C28.2787 29.502 28.2551 29.1592 28.2316 28.8164C27.6094 28.8008 26.9866 28.7906 26.3638 28.7858C26.3675 28.9547 26.3706 29.1237 26.3744 29.2927C26.8249 29.2963 27.2754 29.3024 27.7259 29.312C27.7309 29.398 27.7352 29.484 27.7401 29.57C27.654 29.6554 27.5673 29.7408 27.4811 29.8268C27.1155 29.8202 26.7505 29.8153 26.3849 29.8123C26.3886 29.9904 26.3923 30.1684 26.396 30.3458C26.766 30.3488 27.1366 30.3536 27.5065 30.3602C27.6038 30.4528 27.7011 30.5454 27.7984 30.6387C27.8034 30.7307 27.8083 30.8227 27.8133 30.9147C27.3442 30.9045 26.8757 30.8979 26.4066 30.8942C26.4103 31.0819 26.414 31.2695 26.4184 31.4578C27.0839 31.4632 27.7494 31.4746 28.415 31.4926C28.3896 31.1216 28.3642 30.7505 28.3388 30.3795C28.2408 30.2868 28.1429 30.1942 28.045 30.1028ZM31.7997 30.5268C31.7191 30.0018 31.6392 29.4774 31.5586 28.9529C31.0257 28.9223 30.4922 28.8964 29.9586 28.8742C30.0175 29.3968 30.0764 29.9188 30.1352 30.4414C30.0887 30.4396 30.0429 30.4372 29.9964 30.4354C30.0373 30.8076 30.0776 31.1799 30.1185 31.5516C30.3087 31.56 30.4984 31.5684 30.6886 31.578C30.6657 31.3892 30.6421 31.2004 30.6192 31.0115C30.9005 31.0247 31.1813 31.0398 31.4626 31.0554C31.4899 31.2449 31.5165 31.4337 31.5438 31.6231C31.7334 31.634 31.9236 31.6454 32.1133 31.6568C32.055 31.2827 31.9961 30.9087 31.9379 30.5346C31.892 30.5322 31.8462 30.5298 31.7997 30.5268ZM30.6905 30.4673C30.6458 30.1142 30.6012 29.7606 30.5566 29.4076C30.7363 29.416 30.9166 29.425 31.0964 29.4347C31.1459 29.7883 31.1955 30.1419 31.2445 30.4955C31.0598 30.4853 30.8751 30.4763 30.6905 30.4673ZM35.146 29.2188C34.5257 29.1622 33.9048 29.1111 33.2832 29.0654C33.4605 29.9687 33.6377 30.8726 33.8143 31.7771C34.0039 31.7921 34.1935 31.8072 34.3832 31.8234C34.3045 31.4463 34.2258 31.0693 34.1471 30.6928C34.4241 30.7156 34.7011 30.7391 34.9774 30.7637C35.0636 31.142 35.1503 31.5203 35.2365 31.8986C35.4261 31.916 35.6151 31.9341 35.8047 31.9527C35.5854 31.0404 35.366 30.1293 35.146 29.2188ZM34.0343 30.1497C33.9977 29.9735 33.9605 29.7973 33.924 29.6211C34.1935 29.6427 34.4631 29.665 34.7327 29.6885C34.7729 29.8653 34.8132 30.0421 34.8535 30.2189C34.5802 30.1948 34.3076 30.172 34.0343 30.1497Z" fill="#712727"/>
<path d="M15.8614 29.3524C16.3107 29.3109 16.76 29.2724 17.2092 29.2363C17.1913 29.3235 17.1727 29.4113 17.1547 29.4986C17.045 29.5948 16.9359 29.691 16.8263 29.7872C16.4619 29.8173 16.0975 29.8498 15.7338 29.8841C15.6898 30.0663 15.6458 30.2479 15.6024 30.4301C15.9711 30.3952 16.3404 30.3622 16.7098 30.3309C16.7829 30.4157 16.8554 30.5005 16.9285 30.5853C16.9087 30.6785 16.8895 30.7723 16.8696 30.8655C16.4018 30.904 15.9345 30.9461 15.4673 30.9912C15.4208 31.1837 15.375 31.3755 15.3285 31.568C15.9915 31.503 16.6552 31.4447 17.3189 31.3924C17.3927 31.0159 17.4664 30.64 17.5401 30.2641C17.4664 30.1799 17.3927 30.0963 17.3189 30.0122C17.428 29.9153 17.537 29.8185 17.6461 29.7223C17.7143 29.3753 17.7824 29.0277 17.85 28.6806C17.2284 28.7264 16.6075 28.7775 15.9872 28.834C15.9451 29.0066 15.9029 29.1798 15.8614 29.3524ZM19.0193 31.2721C19.6836 31.2306 20.3485 31.1957 21.0135 31.1668C21.0544 30.7946 21.0946 30.4223 21.1355 30.0506C21.0537 29.9646 20.9719 29.8786 20.8902 29.7926C20.9918 29.7 21.0928 29.6074 21.1944 29.5148C21.2322 29.1714 21.2694 28.8274 21.3072 28.484C20.685 28.5092 20.0629 28.5399 19.4413 28.576C19.3007 29.4745 19.16 30.373 19.0193 31.2721ZM19.9011 29.0565C20.1713 29.0421 20.4415 29.0283 20.7117 29.0162C20.7011 29.1028 20.6906 29.1888 20.6801 29.2754C20.5785 29.3674 20.4762 29.4595 20.3746 29.5521C20.1918 29.5611 20.0096 29.5707 19.8268 29.5803C19.8509 29.4059 19.8763 29.2315 19.9011 29.0565ZM19.7493 30.118C19.9346 30.1078 20.1193 30.0982 20.3046 30.0885C20.3857 30.1751 20.4669 30.2623 20.5481 30.3489C20.5369 30.4416 20.5252 30.5336 20.514 30.6262C20.2327 30.6394 19.9519 30.6544 19.6706 30.6701C19.6966 30.4867 19.7227 30.3026 19.7493 30.118ZM22.7176 31.1073C23.3831 31.0893 24.0487 31.0778 24.7142 31.0724C24.7179 30.8848 24.7217 30.6971 24.726 30.5089C24.2569 30.5125 23.7884 30.5197 23.3193 30.5294C23.3292 30.3465 23.3391 30.1637 23.3497 29.9809C23.812 29.9713 24.2749 29.9646 24.7378 29.961C24.7415 29.783 24.7452 29.605 24.7489 29.4276C24.2922 29.4312 23.8361 29.4378 23.3794 29.4468C23.3887 29.2736 23.3986 29.0998 23.4079 28.9266C23.8584 28.9176 24.309 28.911 24.7595 28.9074C24.7632 28.7384 24.7663 28.5694 24.77 28.4004C24.1472 28.4052 23.525 28.4154 22.9023 28.4311C22.8403 29.3229 22.779 30.2154 22.7176 31.1073ZM28.045 29.7175C28.1305 29.6315 28.2167 29.5449 28.3022 29.4595C28.2787 29.1167 28.2551 28.7739 28.2316 28.4311C27.6094 28.4154 26.9866 28.4052 26.3638 28.4004C26.3675 28.5694 26.3706 28.7384 26.3744 28.9074C26.8249 28.911 27.2754 28.917 27.7259 28.9266C27.7309 29.0126 27.7352 29.0986 27.7401 29.1846C27.654 29.27 27.5673 29.3554 27.4811 29.4414C27.1155 29.4348 26.7505 29.43 26.3849 29.427C26.3886 29.605 26.3923 29.783 26.396 29.9604C26.766 29.9634 27.1366 29.9682 27.5065 29.9749C27.6038 30.0675 27.7011 30.1601 27.7984 30.2533C27.8034 30.3453 27.8083 30.4373 27.8133 30.5294C27.3442 30.5191 26.8757 30.5125 26.4066 30.5089C26.4103 30.6965 26.414 30.8842 26.4184 31.0724C27.0839 31.0778 27.7494 31.0893 28.415 31.1073C28.3896 30.7362 28.3642 30.3652 28.3388 29.9941C28.2408 29.9015 28.1429 29.8095 28.045 29.7175ZM31.7997 30.1421C31.7191 29.617 31.6392 29.0926 31.5586 28.5682C31.0257 28.5375 30.4922 28.5117 29.9586 28.4894C30.0175 29.012 30.0764 29.534 30.1352 30.0567C30.0887 30.0548 30.0429 30.0524 29.9964 30.0506C30.0373 30.4229 30.0776 30.7952 30.1185 31.1668C30.3087 31.1753 30.4984 31.1837 30.6886 31.1933C30.6657 31.0045 30.6421 30.8156 30.6192 30.6268C30.9005 30.64 31.1813 30.655 31.4626 30.6707C31.4899 30.8601 31.5165 31.049 31.5438 31.2384C31.7334 31.2492 31.9236 31.2607 32.1133 31.2721C32.055 30.898 31.9961 30.5239 31.9379 30.1499C31.892 30.1475 31.8462 30.1451 31.7997 30.1421ZM30.6905 30.0819C30.6458 29.7289 30.6012 29.3753 30.5566 29.0222C30.7363 29.0307 30.9166 29.0397 31.0964 29.0493C31.1459 29.4029 31.1955 29.7566 31.2445 30.1102C31.0598 30.1006 30.8751 30.0909 30.6905 30.0819ZM35.146 28.834C34.5257 28.7775 33.9048 28.7264 33.2832 28.6806C33.4605 29.584 33.6377 30.4879 33.8143 31.3924C34.0039 31.4074 34.1935 31.4224 34.3832 31.4387C34.3045 31.0616 34.2258 30.6845 34.1471 30.308C34.4241 30.3309 34.7011 30.3543 34.9774 30.379C35.0636 30.7573 35.1503 31.1356 35.2365 31.5139C35.4261 31.5313 35.6151 31.5493 35.8047 31.568C35.5854 30.6556 35.366 29.7445 35.146 28.834ZM34.0343 29.765C33.9977 29.5888 33.9605 29.4126 33.924 29.2363C34.1935 29.258 34.4631 29.2802 34.7327 29.3037C34.7729 29.4805 34.8132 29.6573 34.8535 29.8341C34.5802 29.8101 34.3076 29.7872 34.0343 29.765Z" fill="white"/>
<path d="M5.26299 23.6782C5.12356 23.689 4.98475 23.6998 4.84532 23.7106C4.96926 22.8555 5.09134 22.0099 5.2128 21.1739C4.489 21.1739 3.76521 21.1739 3.04142 21.1739C2.68139 23.4665 2.23459 25.7855 1.85039 28.2308C1.82622 28.3853 1.87704 28.5886 1.85225 28.7437C2.63491 28.5579 3.41509 28.3811 4.19341 28.2139C4.32479 27.3052 4.45492 26.4073 4.58382 25.5196C4.72572 25.5004 4.86763 25.4818 5.00954 25.4631C5.15392 26.3027 5.30265 27.132 5.45509 27.9505C6.24457 27.7905 7.03281 27.6402 7.81919 27.4995C7.85451 27.2168 7.88921 26.9353 7.92453 26.6551C7.59734 25.9172 7.27696 25.1606 6.96216 24.3836C7.45605 23.5386 7.94126 22.7316 8.41904 21.9588C8.45188 21.696 8.48473 21.4343 8.51757 21.1733C7.77891 21.1733 7.03962 21.1733 6.30096 21.1733C5.95889 21.9822 5.61373 22.8164 5.26299 23.6782ZM14.5942 21.4716C14.3692 21.275 14.0768 21.1745 13.7142 21.1739C12.4172 21.1739 11.1202 21.1739 9.82324 21.1739C9.60759 23.0184 9.34361 24.8768 9.11619 26.8193C9.09945 26.96 9.1261 27.1356 9.10937 27.2763C9.8753 27.1488 10.6406 27.0304 11.4041 26.9209C11.4623 26.3538 11.5199 25.7909 11.5776 25.2322C12.1725 25.1714 12.7661 25.1149 13.3598 25.0626C13.7347 25.0289 14.0557 24.8972 14.3228 24.6705C14.5886 24.4443 14.7342 24.1809 14.759 23.8742C14.8049 23.3161 14.8501 22.7616 14.8954 22.212C14.9201 21.9143 14.8191 21.6689 14.5942 21.4716ZM12.5647 23.6932C12.2871 23.71 12.0089 23.7275 11.7313 23.7455C11.7703 23.3648 11.8093 22.986 11.8478 22.6095C12.1229 22.5993 12.398 22.5896 12.6726 22.5806C12.6366 22.9493 12.6007 23.3203 12.5647 23.6932ZM17.3357 21.1739C16.6937 22.6191 15.8726 24.1888 15.1947 25.7927C15.1767 26.0248 15.2126 26.201 15.1947 26.4344C15.999 26.3502 16.91 26.2798 17.7131 26.2161C17.7949 25.8889 17.8767 25.5635 17.9578 25.2412C18.3637 25.2153 18.769 25.1919 19.1743 25.1702C19.2214 25.48 19.2685 25.7903 19.3162 26.1012C20.1168 26.0501 20.9168 26.0092 21.7168 25.9779C21.723 25.7656 21.7292 25.5533 21.7361 25.3422C21.2223 23.9452 20.721 22.5596 20.2321 21.1739C19.266 21.1739 18.3005 21.1739 17.3357 21.1739ZM18.215 23.9963C18.3625 23.5609 18.5094 23.1303 18.655 22.7045C18.6853 22.7039 18.7163 22.7033 18.7467 22.7027C18.8465 23.1225 18.9475 23.5422 19.0491 23.9626C18.7709 23.9729 18.4932 23.9843 18.215 23.9963ZM25.1047 24.6578C25.1078 23.8844 25.1102 23.1189 25.1127 22.3611C25.8284 22.3605 26.5442 22.3617 27.2599 22.3647C27.4254 22.2324 27.5908 22.1001 27.7557 21.9672C27.7507 21.702 27.7464 21.4374 27.7414 21.1739C26.5653 21.1739 25.3885 21.1739 24.2123 21.1739C23.8504 21.1739 23.5474 21.2611 23.3026 21.4374C23.0572 21.6142 22.9314 21.8355 22.9258 22.1025C22.906 23.0431 22.8856 23.9963 22.8651 24.9615C22.8589 25.24 22.9791 25.4697 23.2258 25.6502C23.4724 25.8312 23.7847 25.9178 24.1603 25.9124C25.3817 25.8949 26.603 25.9003 27.8251 25.9286C27.8176 25.5088 27.8102 25.0915 27.8028 24.6765C26.9036 24.6602 26.0038 24.6542 25.1047 24.6578ZM32.1263 21.1739C32.1573 21.7705 32.1889 22.3719 32.2205 22.9787C31.8834 22.9703 31.5469 22.9625 31.2104 22.9553C31.1838 22.3569 31.1571 21.7627 31.1311 21.1739C30.4073 21.1739 29.6835 21.1739 28.9597 21.1739C29.0025 22.7364 29.0465 24.3331 29.0911 25.9653C29.8434 25.9923 30.5963 26.0278 31.3498 26.0723C31.3219 25.4475 31.2947 24.8286 31.2668 24.2146C31.607 24.2272 31.9472 24.2405 32.288 24.2555C32.3209 24.878 32.3531 25.5058 32.3866 26.1391C33.1413 26.1914 33.8961 26.2528 34.6521 26.3225C34.6397 26.1409 34.7618 25.9737 34.7494 25.7933C34.6416 24.2254 34.4018 22.6768 34.2989 21.1745C33.5739 21.1739 32.8501 21.1739 32.1263 21.1739ZM42.4118 26.5631C41.6316 24.6596 40.7027 22.8332 39.974 21.1739C39.0085 21.1739 38.0437 21.1739 37.0782 21.1739C36.6667 22.7183 36.241 24.2375 35.8016 25.7422C35.8196 25.9743 35.8376 26.207 35.8555 26.441C36.6611 26.5252 37.4673 26.6196 38.2754 26.7236C38.3052 26.376 38.3349 26.0284 38.3647 25.6808C38.773 25.7241 39.182 25.7692 39.591 25.8167C39.6914 26.1896 39.793 26.5655 39.8946 26.9456C40.7064 27.0634 41.5195 27.1915 42.3337 27.3293C42.3015 27.0544 42.444 26.8355 42.4118 26.5631ZM38.421 24.3211C38.4985 23.8496 38.5753 23.3769 38.6516 22.9036C38.6819 22.9048 38.7129 22.906 38.7433 22.9072C38.9137 23.3925 39.086 23.885 39.2595 24.386C38.98 24.3638 38.7005 24.3421 38.421 24.3211ZM49.2822 28.2314C48.9011 25.8047 48.4488 23.4502 48.0912 21.1745C46.7638 21.1745 45.4371 21.1745 44.1097 21.1745C43.7478 21.1745 43.4616 21.2948 43.2502 21.5288C43.0383 21.7633 42.954 22.0538 42.9986 22.408C43.0625 22.9132 43.1269 23.422 43.192 23.9344C43.2366 24.2862 43.4176 24.5755 43.7379 24.8112C43.8829 24.9309 44.0428 25.0223 44.2182 25.086C43.9176 25.6279 43.6134 26.1553 43.3048 26.6707C43.3401 26.9522 43.3754 27.2342 43.4107 27.5175C44.1971 27.6594 44.9854 27.8104 45.7755 27.9709C45.9731 27.2571 46.1671 26.5312 46.3567 25.7927C46.436 25.8041 46.5147 25.8149 46.5941 25.8264C46.7081 26.6142 46.8233 27.4098 46.9398 28.2145C47.7182 28.3817 48.4983 28.5585 49.281 28.7443C49.2531 28.5711 49.3095 28.4034 49.2822 28.2314ZM45.3993 23.9295C45.3497 23.5753 45.3008 23.2229 45.2518 22.8723C45.5586 22.8879 45.8659 22.9048 46.1727 22.921C46.2247 23.2818 46.2774 23.6451 46.3301 24.0095C46.0202 23.9819 45.7098 23.9554 45.3993 23.9295Z" fill="#757575"/>
<path d="M5.26239 23.2333C5.12297 23.2442 4.98416 23.255 4.84473 23.2658C4.96866 22.4106 5.09074 21.5651 5.2122 20.7291C4.48841 20.7291 3.76462 20.7291 3.04083 20.7291C2.68079 23.0216 2.234 25.3406 1.84979 27.7859C1.82563 27.9405 1.87644 28.1438 1.85165 28.2989C2.63431 28.1131 3.4145 27.9363 4.19282 27.7691C4.32419 26.8604 4.45433 25.9625 4.58322 25.0748C4.72513 25.0556 4.86704 25.0369 5.00894 25.0183C5.15333 25.8578 5.30205 26.6872 5.4545 27.5057C6.24397 27.3457 7.03221 27.1954 7.81859 27.0546C7.85391 26.772 7.88862 26.4905 7.92394 26.2103C7.59674 25.4723 7.27637 24.7158 6.96157 23.9388C7.45546 23.0938 7.94067 22.2867 8.41845 21.5139C8.45129 21.2511 8.48413 20.9895 8.51697 20.7285C7.77831 20.7285 7.03903 20.7285 6.30036 20.7285C5.9583 21.5374 5.61314 22.3715 5.26239 23.2333ZM14.5936 21.0262C14.3687 20.8295 14.0762 20.7291 13.7136 20.7285C12.4166 20.7285 11.1196 20.7285 9.82265 20.7285C9.607 22.573 9.34301 24.4313 9.11559 26.3738C9.09886 26.5146 9.1255 26.6902 9.10877 26.8309C9.8747 26.7034 10.64 26.5849 11.4035 26.4755C11.4617 25.9084 11.5193 25.3455 11.577 24.7868C12.1719 24.726 12.7655 24.6695 13.3592 24.6172C13.7341 24.5835 14.0551 24.4518 14.3222 24.225C14.588 23.9989 14.7336 23.7355 14.7584 23.4288C14.8043 22.8707 14.8495 22.3162 14.8948 21.7665C14.9202 21.4694 14.8192 21.2241 14.5936 21.0262ZM12.5641 23.2484C12.2865 23.2652 12.0083 23.2827 11.7307 23.3007C11.7697 22.92 11.8087 22.5411 11.8472 22.1647C12.1223 22.1544 12.3974 22.1448 12.672 22.1358C12.6366 22.5044 12.6001 22.8755 12.5641 23.2484ZM17.3351 20.7291C16.6931 22.1743 15.872 23.7439 15.1941 25.3479C15.1761 25.58 15.212 25.7562 15.1941 25.9895C15.9984 25.9054 16.9094 25.835 17.7125 25.7712C17.7943 25.4441 17.8761 25.1187 17.9572 24.7964C18.3631 24.7705 18.7684 24.7471 19.1737 24.7254C19.2208 25.0351 19.2679 25.3454 19.3156 25.6564C20.1162 25.6053 20.9162 25.5644 21.7162 25.5331C21.7224 25.3208 21.7286 25.1085 21.7355 24.8974C21.2217 23.5004 20.7204 22.1147 20.2315 20.7291C19.2654 20.7291 18.3005 20.7291 17.3351 20.7291ZM18.2144 23.5509C18.3619 23.1155 18.5088 22.6849 18.6544 22.2591C18.6847 22.2585 18.7157 22.2579 18.7461 22.2573C18.8459 22.677 18.9469 23.0968 19.0485 23.5172C18.7703 23.528 18.4926 23.5395 18.2144 23.5509ZM25.1041 24.2124C25.1072 23.439 25.1096 22.6734 25.1121 21.9157C25.8278 21.9151 26.5436 21.9163 27.2593 21.9193C27.4248 21.787 27.5902 21.6541 27.7551 21.5218C27.7501 21.2565 27.7458 20.9919 27.7408 20.7285C26.5647 20.7285 25.3879 20.7285 24.2117 20.7285C23.8498 20.7285 23.5468 20.8157 23.302 20.9919C23.0566 21.1687 22.9308 21.3901 22.9252 21.6571C22.9054 22.5977 22.885 23.5509 22.8645 24.5161C22.8583 24.7946 22.9785 25.0243 23.2252 25.2047C23.4718 25.3857 23.7841 25.4723 24.1597 25.4669C25.3811 25.4495 26.6025 25.4549 27.8245 25.4832C27.817 25.0634 27.8096 24.646 27.8022 24.2311C26.903 24.2154 26.0038 24.2094 25.1041 24.2124ZM32.1257 20.7291C32.1567 21.3257 32.1883 21.9271 32.2199 22.5339C31.8828 22.5255 31.5463 22.5177 31.2098 22.5105C31.1832 21.9121 31.1565 21.3179 31.1305 20.7291C30.4067 20.7291 29.6829 20.7291 28.9591 20.7291C29.0019 22.2915 29.0459 23.8883 29.0905 25.5205C29.8428 25.5475 30.5957 25.583 31.3492 25.6275C31.3213 25.0027 31.2941 24.3838 31.2662 23.7698C31.6064 23.7824 31.9466 23.7956 32.2874 23.8107C32.3203 24.4331 32.3525 25.061 32.386 25.6943C33.1407 25.7466 33.8955 25.8079 34.6515 25.8777C34.6391 25.6961 34.7612 25.5289 34.7488 25.3485C34.641 23.7806 34.4012 22.232 34.2983 20.7297C33.5739 20.7291 32.8501 20.7291 32.1257 20.7291ZM42.4118 26.1182C41.6316 24.2148 40.7027 22.3884 39.974 20.7291C39.0085 20.7291 38.0437 20.7291 37.0782 20.7291C36.6667 22.2735 36.241 23.7926 35.8017 25.2973C35.8196 25.5295 35.8376 25.7622 35.8556 25.9962C36.6612 26.0804 37.4674 26.1748 38.2754 26.2788C38.3052 25.9312 38.3349 25.5836 38.3647 25.236C38.773 25.2793 39.182 25.3244 39.591 25.3719C39.6914 25.7448 39.793 26.1207 39.8947 26.5007C40.7065 26.6186 41.5195 26.7467 42.3338 26.8844C42.3009 26.6096 42.4441 26.3907 42.4118 26.1182ZM38.4204 23.8762C38.4979 23.4047 38.5747 22.932 38.651 22.4587C38.6813 22.4599 38.7123 22.4611 38.7427 22.4623C38.9131 22.9477 39.0854 23.4402 39.2589 23.9412C38.9794 23.9183 38.6999 23.8967 38.4204 23.8762ZM49.2823 27.7859C48.9012 25.3593 48.4488 23.0048 48.0912 20.7291C46.7639 20.7291 45.4371 20.7291 44.1098 20.7291C43.7479 20.7291 43.4616 20.8494 43.2503 21.0833C43.0383 21.3179 42.9541 21.6084 42.9987 21.9626C43.0625 22.4678 43.1269 22.9765 43.192 23.4889C43.2366 23.8408 43.4176 24.13 43.738 24.3658C43.883 24.4855 44.0428 24.5769 44.2182 24.6406C43.9177 25.1825 43.6134 25.7099 43.3048 26.2253C43.3401 26.5068 43.3754 26.7888 43.4108 27.0721C44.1971 27.214 44.9854 27.3649 45.7755 27.5255C45.9732 26.8117 46.1671 26.0858 46.3567 25.3473C46.4361 25.3587 46.5148 25.3695 46.5941 25.3809C46.7081 26.1688 46.8234 26.9644 46.9399 27.7691C47.7182 27.9363 48.4984 28.1131 49.281 28.2989C49.2531 28.1263 49.3089 27.9585 49.2823 27.7859ZM45.3993 23.4847C45.3498 23.1305 45.3008 22.7781 45.2518 22.4275C45.5586 22.4431 45.8659 22.4599 46.1727 22.4762C46.2247 22.837 46.2774 23.2003 46.3301 23.5647C46.0196 23.537 45.7092 23.5106 45.3993 23.4847Z" fill="url(#paint3_linear)"/>
<path d="M8.23502 20.9696L8.17677 21.4344C7.69899 22.2078 7.2175 23.0107 6.74406 23.8202L6.68581 23.92L6.72919 24.0271C7.03097 24.7716 7.34639 25.5179 7.66863 26.2456L7.59303 26.8506C6.94918 26.9673 6.29789 27.0912 5.65218 27.2205C5.51585 26.4808 5.38138 25.7278 5.25248 24.9791L5.21282 24.7494L4.97486 24.7806C4.83295 24.7993 4.69105 24.8179 4.54852 24.8372L4.36323 24.8618L4.33721 25.0416L3.97097 27.5705C3.34881 27.7052 2.71983 27.8472 2.09519 27.9939C2.09085 27.9296 2.08713 27.8664 2.09395 27.8225C2.28853 26.5818 2.5017 25.3628 2.70744 24.184C2.90078 23.0781 3.08359 22.0298 3.25214 20.9702H4.92591L4.59809 23.2326L4.55472 23.5303L4.86332 23.5063C5.00275 23.4954 5.14156 23.4846 5.28099 23.4738L5.43529 23.4618L5.4923 23.3222C5.81515 22.5284 6.14173 21.7382 6.46396 20.9702H7.40588L8.23502 20.9696ZM8.5145 20.729C7.77584 20.729 7.03655 20.729 6.29789 20.729C5.9583 21.5367 5.61314 22.3708 5.2624 23.2332C5.12297 23.2441 4.98416 23.2549 4.84473 23.2657C4.96867 22.4105 5.09074 21.5649 5.2122 20.729C4.48841 20.729 3.76462 20.729 3.04083 20.729C2.68079 23.0215 2.234 25.3405 1.84979 27.7858C1.82563 27.9404 1.87644 28.1436 1.85165 28.2988C2.63431 28.113 3.4145 27.9362 4.19282 27.769C4.32419 26.8603 4.45433 25.9624 4.58322 25.0747C4.72513 25.0555 4.86704 25.0368 5.00895 25.0182C5.15333 25.8577 5.30206 26.6871 5.4545 27.5056C6.24398 27.3456 7.03221 27.1952 7.81859 27.0545C7.85392 26.7719 7.88862 26.4904 7.92394 26.2102C7.59675 25.4722 7.27637 24.7157 6.96157 23.9387C7.45546 23.0937 7.94067 22.2866 8.41845 21.5138C8.44943 21.2516 8.48228 20.99 8.5145 20.729Z" fill="white"/>
<path d="M13.7143 20.9696C14.0136 20.9696 14.2466 21.0465 14.4275 21.2047C14.5967 21.3527 14.6667 21.5253 14.6481 21.7478L14.5787 22.5939L14.5118 23.41C14.492 23.6518 14.3767 23.8593 14.1592 24.0439C13.9287 24.2394 13.6597 24.3488 13.3369 24.3777C12.7451 24.43 12.1446 24.4877 11.5516 24.5479L11.3508 24.5683L11.331 24.7632L11.1766 26.2655C10.5731 26.3533 9.96393 26.4471 9.35912 26.5463C9.35788 26.4922 9.35788 26.4423 9.36221 26.4014C9.47686 25.4187 9.60265 24.4475 9.72411 23.5081C9.83689 22.6354 9.9441 21.8079 10.0439 20.969L13.7143 20.9696ZM11.4549 23.5592L11.7474 23.5405C12.025 23.5225 12.3026 23.5051 12.5802 23.4882L12.7915 23.4756L12.8114 23.2711L12.8721 22.6463L12.9198 22.1585L12.9465 21.8861L12.6645 21.8957C12.3894 21.9053 12.1142 21.915 11.8391 21.9246L11.6234 21.9324L11.6018 22.1411L11.4853 23.2771L11.4549 23.5592ZM13.7143 20.729C12.4173 20.729 11.1203 20.729 9.82326 20.729C9.60761 22.5735 9.34362 24.4318 9.1162 26.3743C9.09947 26.5151 9.12611 26.6907 9.10938 26.8314C9.87593 26.7039 10.6406 26.5854 11.4041 26.476C11.4623 25.9089 11.52 25.3459 11.5776 24.7872C12.1725 24.7265 12.7661 24.67 13.3598 24.6176C13.7347 24.584 14.0557 24.4523 14.3228 24.2255C14.5886 23.9994 14.7343 23.736 14.759 23.4293C14.8049 22.8712 14.8501 22.3167 14.8954 21.767C14.9202 21.4687 14.8185 21.224 14.5936 21.0261C14.3686 20.83 14.0762 20.729 13.7143 20.729ZM11.7306 23.3006C11.7697 22.9199 11.8087 22.541 11.8471 22.1645C12.1223 22.1543 12.3974 22.1447 12.6719 22.1357C12.636 22.5049 12.6001 22.8754 12.5635 23.2483C12.2865 23.2651 12.0083 23.2825 11.7306 23.3006Z" fill="white"/>
<path d="M20.0537 20.9696C20.4924 22.2109 20.9621 23.5105 21.4858 24.9352L21.4783 25.1926L21.4752 25.3015C20.8283 25.3285 20.1751 25.3622 19.5276 25.4019C19.491 25.1643 19.4551 24.9274 19.4191 24.6904L19.3863 24.4733L19.1607 24.4854C18.7561 24.507 18.3464 24.5305 17.9418 24.5563L17.7602 24.5677L17.7168 24.7391C17.6493 25.0062 17.5818 25.275 17.5142 25.5456L17.4572 25.5504C16.8171 25.6016 16.1026 25.6581 15.4451 25.723C15.4445 25.7014 15.4432 25.6797 15.4426 25.6581C15.4389 25.5721 15.4352 25.4909 15.4395 25.4031C15.8212 24.5028 16.2494 23.6103 16.6634 22.7473C16.959 22.1303 17.2403 21.5451 17.4987 20.9702H17.9567L20.0537 20.9696ZM17.8668 23.807L18.2256 23.7913C18.5038 23.7793 18.7839 23.7679 19.0578 23.7577L19.3578 23.7462L19.289 23.4624C19.1867 23.0402 19.0857 22.6162 18.9872 22.203L18.942 22.0124L18.7399 22.0166L18.7083 22.0172L18.6482 22.0184L18.4735 22.022L18.4183 22.1832C18.2727 22.609 18.1258 23.0402 17.9783 23.4756L17.8668 23.807ZM20.2309 20.729C19.2654 20.729 18.3006 20.729 17.3351 20.729C16.6931 22.1742 15.872 23.7438 15.1941 25.3478C15.1761 25.5799 15.2121 25.7561 15.1941 25.9895C15.9985 25.9053 16.9094 25.8349 17.7125 25.7711C17.7943 25.444 17.8761 25.1186 17.9573 24.7963C18.3632 24.7704 18.7684 24.747 19.1737 24.7253C19.2208 25.035 19.2679 25.3454 19.3156 25.6563C20.1163 25.6052 20.9163 25.5643 21.7163 25.533C21.7225 25.3207 21.7287 25.1084 21.7355 24.8973C21.2212 23.4997 20.7198 22.1146 20.2309 20.729ZM18.2144 23.5514C18.3619 23.116 18.5088 22.6854 18.6544 22.2596C18.6848 22.259 18.7158 22.2584 18.7461 22.2578C18.8459 22.6775 18.9469 23.0973 19.0485 23.5177C18.7703 23.5279 18.4927 23.5394 18.2144 23.5514Z" fill="white"/>
<path d="M27.4973 20.9696L27.4998 21.1187L27.5047 21.411C27.3938 21.5 27.2822 21.5896 27.1707 21.6792C26.6372 21.6768 26.0974 21.6756 25.5651 21.6756C25.4139 21.6756 25.2633 21.6756 25.1121 21.6756H24.8655L24.8649 21.915L24.8593 23.5111L24.8568 24.2117L24.8562 24.4541L25.1059 24.4535C25.2596 24.4529 25.4133 24.4529 25.567 24.4529C26.2282 24.4529 26.8974 24.4577 27.5599 24.4679L27.5735 25.2377C26.9061 25.2239 26.2325 25.2172 25.567 25.2172C25.0991 25.2172 24.625 25.2209 24.1578 25.2275C24.1479 25.2275 24.138 25.2275 24.1287 25.2275C23.8188 25.2275 23.5728 25.1577 23.3764 25.0134C23.1936 24.8793 23.1105 24.7235 23.1143 24.522L23.1483 22.9121L23.175 21.663C23.1793 21.4705 23.2667 21.319 23.4514 21.1861C23.6534 21.0405 23.9025 20.9696 24.2136 20.9696H27.4973ZM27.7408 20.729C26.5647 20.729 25.3879 20.729 24.2117 20.729C23.8498 20.729 23.5468 20.8162 23.302 20.9924C23.0566 21.1692 22.9308 21.3905 22.9253 21.6576C22.9054 22.5982 22.885 23.5514 22.8645 24.5166C22.8583 24.7951 22.9785 25.0248 23.2252 25.2052C23.465 25.3808 23.7655 25.468 24.1268 25.468C24.138 25.468 24.1485 25.468 24.1597 25.468C24.6281 25.4614 25.0966 25.4578 25.5651 25.4578C26.318 25.4578 27.0709 25.4662 27.8238 25.4837C27.8164 25.0639 27.809 24.6465 27.8015 24.2316C27.0561 24.2189 26.31 24.2123 25.5645 24.2123C25.4108 24.2123 25.2565 24.2123 25.1028 24.2129C25.1059 23.4395 25.1084 22.6739 25.1109 21.9162C25.2615 21.9162 25.4127 21.9162 25.5639 21.9162C26.1284 21.9162 26.6935 21.9174 27.2581 21.9198C27.4235 21.7875 27.589 21.6552 27.7538 21.5222C27.7501 21.257 27.7458 20.9924 27.7408 20.729Z" fill="white"/>
<path d="M29.2132 20.9696H30.8932L30.9378 21.9643L30.9626 22.5206L30.9725 22.7455L31.2049 22.7503C31.5414 22.7575 31.8778 22.7653 32.2143 22.7738L32.482 22.7804L32.4684 22.5212L32.4083 21.3665L32.3872 20.969H33.3837H34.0672C34.1192 21.6467 34.1973 22.3414 34.2729 23.0149C34.3591 23.7823 34.4477 24.5762 34.5016 25.3634C34.5047 25.4097 34.4849 25.4735 34.4632 25.5414C34.4557 25.5655 34.4477 25.5901 34.4402 25.616C33.8354 25.5619 33.2263 25.5125 32.6221 25.4692L32.6159 25.3484L32.5347 23.798L32.5236 23.5796L32.2986 23.57C31.959 23.5556 31.6151 23.5418 31.2761 23.5291L31.0078 23.5195L31.0196 23.7799L31.0636 24.765L31.0908 25.3718C30.5065 25.3393 29.9172 25.3111 29.3334 25.2888L29.2696 22.9506L29.2132 20.9696ZM28.9591 20.729C29.0019 22.2914 29.0459 23.8882 29.0905 25.5204C29.8428 25.5474 30.5957 25.5829 31.3493 25.6274C31.3214 25.0026 31.2941 24.3837 31.2662 23.7697C31.6064 23.7823 31.9466 23.7955 32.2875 23.8106C32.3203 24.433 32.3525 25.0609 32.386 25.6942C33.1408 25.7465 33.8955 25.8078 34.6515 25.8776C34.6392 25.696 34.7612 25.5288 34.7488 25.3484C34.641 23.7805 34.4012 22.2319 34.2983 20.7296C33.5745 20.7296 32.8507 20.7296 32.127 20.7296C32.1579 21.3262 32.1895 21.9276 32.2211 22.5344C31.884 22.526 31.5475 22.5182 31.2111 22.511C31.1844 21.9126 31.1578 21.3184 31.1317 20.7296C30.4067 20.729 29.6829 20.729 28.9591 20.729Z" fill="white"/>
<path d="M37.2696 20.9696H38.5257H39.8104C40.083 21.5842 40.3774 22.2133 40.6884 22.8766C41.1873 23.9417 41.7029 25.0428 42.1676 26.1741C42.1726 26.2607 42.1528 26.3485 42.1305 26.4483C42.1199 26.4964 42.1081 26.5469 42.0995 26.6005C41.4321 26.4892 40.7591 26.384 40.0929 26.2859C40.0049 25.9582 39.9176 25.6328 39.8302 25.3105L39.7874 25.1523L39.6201 25.133C39.213 25.0855 38.7997 25.0398 38.3913 24.9965L38.1384 24.9695L38.1174 25.2154C38.0951 25.4789 38.0728 25.7429 38.0498 26.0069C37.3967 25.9245 36.7386 25.8475 36.0873 25.7783L36.0792 25.6713L36.0526 25.3219C36.4783 23.8599 36.8879 22.3973 37.2696 20.9696ZM39.6139 24.2105L39.4937 23.8641C39.3227 23.3709 39.1492 22.8736 38.9775 22.3847L38.923 22.2289L38.7538 22.2217L38.6652 22.2181H38.6621L38.4402 22.2084L38.4062 22.4213C38.3305 22.8916 38.2537 23.3679 38.1762 23.8382L38.1341 24.0956L38.4024 24.1155C38.6801 24.1365 38.962 24.1582 39.2396 24.1804L39.6139 24.2105ZM37.0782 20.729C36.6667 22.2734 36.241 23.7925 35.8016 25.2972C35.8196 25.5294 35.8376 25.7621 35.8555 25.9961C36.6611 26.0803 37.4673 26.1747 38.2754 26.2787C38.3051 25.9311 38.3349 25.5835 38.3646 25.2359C38.773 25.2792 39.182 25.3243 39.591 25.3718C39.6914 25.7447 39.793 26.1205 39.8946 26.5006C40.7064 26.6185 41.5194 26.7466 42.3337 26.8843C42.3009 26.6095 42.444 26.3906 42.4118 26.1181C41.6316 24.2147 40.7027 22.3883 39.974 20.729C39.0085 20.729 38.0436 20.729 37.0782 20.729ZM39.2588 23.9411C38.9794 23.9188 38.6999 23.8972 38.4204 23.8761C38.4979 23.4046 38.5747 22.9319 38.6509 22.4586C38.6813 22.4598 38.7123 22.461 38.7426 22.4622C38.9131 22.9476 39.0853 23.4401 39.2588 23.9411Z" fill="white"/>
<path d="M44.1098 20.9696H45.3764H47.8781C48.0454 22.0226 48.2294 23.0751 48.4234 24.1846C48.6297 25.3676 48.8435 26.5914 49.0369 27.8219C49.0449 27.8724 49.0418 27.9289 49.0363 27.9933C48.4116 27.8466 47.7826 27.7046 47.1605 27.5699L47.0217 26.6101L46.8389 25.3471L46.8128 25.1691L46.6294 25.1427C46.5501 25.1312 46.4708 25.1198 46.3921 25.109L46.1702 25.0777L46.1157 25.2888C45.9478 25.9431 45.773 26.5999 45.5964 27.2434C44.9439 27.1122 44.2858 26.986 43.6351 26.8675L43.5614 26.2757C43.8594 25.7759 44.1538 25.2642 44.437 24.7536L44.5714 24.5106L44.3056 24.4138C44.1587 24.3603 44.0218 24.2821 43.8991 24.181L43.8941 24.1768L43.8886 24.1726C43.6221 23.9766 43.4752 23.7426 43.4393 23.4582L43.3501 22.7551L43.2459 21.9318C43.21 21.6491 43.2726 21.423 43.4374 21.2402C43.6023 21.0592 43.8229 20.9702 44.1098 20.9696ZM46.6189 23.831L46.5755 23.5309L46.4181 22.4424L46.3896 22.2469L46.1863 22.2361C45.879 22.2193 45.5722 22.203 45.2649 22.1874L44.9656 22.1718L45.0058 22.4598L45.1533 23.5171L45.18 23.7077L45.3777 23.7246C45.6875 23.7504 45.9973 23.7769 46.3078 23.8046L46.6189 23.831ZM44.1098 20.729C43.7479 20.729 43.4616 20.8493 43.2503 21.0832C43.0384 21.3178 42.9541 21.6082 42.9987 21.9625C43.0625 22.4676 43.127 22.9764 43.192 23.4888C43.2367 23.8406 43.4176 24.1299 43.738 24.3657C43.883 24.4853 44.0429 24.5768 44.2182 24.6405C43.9177 25.1824 43.6134 25.7098 43.3048 26.2252C43.3401 26.5066 43.3755 26.7887 43.4108 27.072C44.1972 27.2139 44.9854 27.3648 45.7755 27.5254C45.9732 26.8116 46.1671 26.0857 46.3568 25.3471C46.4361 25.3586 46.5148 25.3694 46.5941 25.3808C46.7081 26.1687 46.8234 26.9643 46.9399 27.769C47.7182 27.9362 48.4984 28.113 49.281 28.2988C49.2538 28.1262 49.3102 27.9578 49.2829 27.7858C48.9018 25.3592 48.4494 23.0047 48.0919 20.729C46.7639 20.729 45.4371 20.729 44.1098 20.729ZM46.3301 23.5646C46.0196 23.5375 45.7092 23.5105 45.3993 23.4846C45.3498 23.1304 45.3008 22.778 45.2519 22.4274C45.5586 22.443 45.866 22.4598 46.1727 22.4761C46.2248 22.8369 46.2774 23.1995 46.3301 23.5646Z" fill="white"/>
<path d="M25.583 41.1203C29.5044 41.1203 32.9052 40.1545 34.0207 38.8531V35.1406C32.7813 36.1456 29.4617 36.8991 25.5452 36.9641C21.5985 37.0302 18.1568 36.3777 16.9794 35.404V38.7412C17.9708 40.1166 21.4739 41.1203 25.583 41.1203Z" fill="url(#paint4_linear)"/>
<path opacity="0.35" d="M17.5203 36.7146L16.9794 37.2396V37.6402L17.7385 36.9149L18.5106 37.6582L17.736 38.4015L16.9794 37.6769V38.0774L17.5321 38.6024L17.1733 38.956C17.2359 39.024 17.3078 39.0901 17.3828 39.1557L17.7484 38.8021L18.5156 39.5454L18.2987 39.7559C18.3873 39.8016 18.4784 39.8461 18.5732 39.89L18.7219 39.7457L19.0981 40.1107C19.3744 40.2166 19.6719 40.3152 19.9861 40.4066L20.6671 39.7457L21.433 40.489L21.2099 40.7055C21.3233 40.7284 21.438 40.7506 21.5539 40.7717L21.6394 40.6887L21.7627 40.8083C21.9244 40.836 22.0886 40.8625 22.256 40.8865L21.8457 40.4884L22.6117 39.7451L23.3776 40.4884L22.8837 40.9677C23.0064 40.9815 23.1303 40.9948 23.2555 41.0074L23.5839 40.6887L23.9725 41.0657C24.1175 41.0754 24.2637 41.0838 24.4112 41.091L23.7903 40.4884L24.5562 39.7451L25.3222 40.4884L24.6901 41.1018C24.8227 41.1066 24.9565 41.1102 25.091 41.1133L25.5285 40.6887L25.9691 41.1163C26.1042 41.1139 26.2381 41.1108 26.3713 41.106L25.7349 40.4884L26.5008 39.7451L27.2667 40.4884L26.6408 41.0958C26.7877 41.0892 26.9333 41.0814 27.0777 41.0724L27.4731 40.6887L27.8083 41.014C27.9335 41.002 28.0574 40.9888 28.1801 40.9749L27.6794 40.489L28.4454 39.7457L29.2113 40.489L28.7918 40.8961C28.9585 40.8721 29.1227 40.8462 29.2844 40.8186L29.4177 40.6893L29.5094 40.7783C29.6252 40.7572 29.7399 40.735 29.8533 40.7115L29.624 40.489L30.3899 39.7457L31.0765 40.412C31.3839 40.3224 31.6745 40.2256 31.9466 40.1221L32.3345 39.7457L32.4894 39.896C32.5842 39.8527 32.6772 39.8088 32.7658 39.7637L32.5409 39.5454L33.3068 38.8021L33.6885 39.1725C33.7647 39.1088 33.8366 39.0444 33.9011 38.9789L33.5131 38.6018L34.0188 38.1117V37.7111L33.3068 38.4009L32.5402 37.6576L33.3068 36.9143L34.0207 37.6053V37.2048L33.5156 36.7146L34.0207 36.2245V35.8239L33.3086 36.5138L32.6487 35.8733C32.5514 35.9099 32.4516 35.946 32.3475 35.9815L33.1017 36.7134L32.3357 37.4567L31.5698 36.7134L32.311 35.9941C32.1207 36.0585 31.9187 36.1198 31.708 36.1788L31.3635 36.5131L31.1645 36.3201C31.0555 36.3466 30.9446 36.3724 30.8312 36.3971L31.1571 36.7134L30.3912 37.4567L29.6252 36.7134L29.7362 36.6058C29.5571 36.6352 29.3743 36.6629 29.1878 36.6888L29.2125 36.7128L28.4466 37.4561L27.8164 36.8445C27.5729 36.8662 27.325 36.8854 27.074 36.9011L26.502 37.4561L25.9827 36.9522C25.8495 36.9564 25.715 36.9594 25.58 36.9618L26.2957 37.6564L25.5298 38.3997L24.7638 37.6564L25.4783 36.963C25.3389 36.9648 25.2007 36.966 25.0625 36.966L24.5575 37.4561L24.0376 36.9516C23.8932 36.9474 23.75 36.9413 23.6081 36.9353L24.3511 37.6564L23.5852 38.3997L22.8193 37.6564L23.5641 36.9335C23.4327 36.9275 23.302 36.9209 23.1725 36.9131L22.6129 37.4561L21.9511 36.8138C21.7627 36.794 21.5768 36.773 21.3952 36.7501L20.6677 37.4561L19.9018 36.7128L20.0784 36.5414C19.9625 36.5192 19.8485 36.4957 19.7376 36.4717L19.6954 36.5125L19.6285 36.4476C19.437 36.4049 19.2536 36.3598 19.077 36.3129L19.4891 36.7128L18.7231 37.4561L17.9572 36.7128L18.5341 36.1529C18.4288 36.1186 18.3278 36.0838 18.2299 36.0477L17.7391 36.5125L16.9794 35.7891V36.1896L17.5203 36.7146ZM19.6948 40.2893L18.9289 39.546L19.6948 38.8027L20.4607 39.546L19.6948 40.2893ZM21.64 40.2893L20.8741 39.546L21.64 38.8027L22.4059 39.546L21.64 40.2893ZM27.4743 40.2893L26.7084 39.546L27.4743 38.8027L28.2403 39.546L27.4743 40.2893ZM29.4189 40.2893L28.653 39.546L29.4189 38.8027L30.1848 39.546L29.4189 40.2893ZM31.3635 40.2893L30.5975 39.546L31.3635 38.8027L32.1294 39.546L31.3635 40.2893ZM33.1023 38.6024L32.3364 39.3457L31.5704 38.6024L32.3364 37.8591L33.1023 38.6024ZM31.3635 36.9149L32.1294 37.6582L31.3635 38.4015L30.5975 37.6582L31.3635 36.9149ZM31.1571 38.6024L30.3912 39.3457L29.6252 38.6024L30.3912 37.8591L31.1571 38.6024ZM29.4189 36.9149L30.1848 37.6582L29.4189 38.4015L28.653 37.6582L29.4189 36.9149ZM29.2125 38.6024L28.4466 39.3457L27.6807 38.6024L28.4466 37.8591L29.2125 38.6024ZM27.4743 36.9149L28.2403 37.6582L27.4743 38.4015L26.7084 37.6582L27.4743 36.9149ZM26.5014 37.8585L27.2673 38.6018L26.5014 39.3451L25.7355 38.6018L26.5014 37.8585ZM26.2957 39.546L25.5298 40.2893L24.7638 39.546L25.5298 38.8027L26.2957 39.546ZM24.5569 37.8585L25.3228 38.6018L24.5569 39.3451L23.7909 38.6018L24.5569 37.8585ZM24.3505 39.546L23.5846 40.2893L22.8186 39.546L23.5846 38.8027L24.3505 39.546ZM23.3782 38.6024L22.6123 39.3457L21.8464 38.6024L22.6123 37.8591L23.3782 38.6024ZM21.64 36.9149L22.4059 37.6582L21.64 38.4015L20.8741 37.6582L21.64 36.9149ZM21.4336 38.6024L20.6677 39.3457L19.9018 38.6024L20.6677 37.8591L21.4336 38.6024ZM19.6948 36.9149L20.4607 37.6582L19.6948 38.4015L18.9289 37.6582L19.6948 36.9149ZM19.4885 38.6024L18.7225 39.3457L17.9566 38.6024L18.7225 37.8591L19.4885 38.6024Z" fill="black"/>
<path d="M32.267 35.9122C32.267 35.9122 31.6919 36.4282 29.6959 36.8179C29.6959 36.8179 30.8349 36.8498 32.3209 36.5124C32.3209 36.5124 31.2686 37.1126 29.6959 37.3965C29.6959 37.3965 30.9328 37.4494 32.3209 37.0909C32.3209 37.0909 31.3226 37.6701 29.6959 37.9967C29.6959 37.9967 31.1385 38.0496 32.2558 37.6911C32.2558 37.6911 31.2253 38.3334 29.6959 38.565C29.6959 38.565 30.8782 38.6811 32.3209 38.3016C32.3209 38.3016 30.8132 38.986 29.6959 39.1544C29.6959 39.1544 31.128 39.2596 32.2124 38.9228C32.2124 38.9228 30.6936 39.6385 29.6959 39.7335C29.6959 39.7335 30.9111 39.9127 32.1151 39.5122C32.1151 39.5122 31.2693 40.0492 29.6959 40.3331C29.6959 40.3331 30.7264 40.4383 31.822 40.2591C32.9176 40.0799 33.3842 39.5537 33.3842 39.5537C33.3842 39.5537 32.7441 39.7852 32.4838 39.796C32.4838 39.796 33.4493 39.4274 33.7746 38.8693C33.7746 38.8693 33.2541 39.3432 32.4838 39.4274C32.4838 39.4274 33.4276 39.1117 33.8292 38.5325C33.8292 38.5325 33.0372 39.0587 32.4733 39.0906C32.4733 39.0906 33.3626 38.8272 33.8292 38.2065C33.8292 38.2065 33.0484 38.6696 32.4733 38.7328C32.4733 38.7328 33.3954 38.417 33.8292 37.88C33.8292 37.88 33.1203 38.2992 32.495 38.396C32.495 38.396 33.5584 38.0382 33.8292 37.5643C33.8292 37.5643 32.9182 38.0273 32.4838 38.0273C32.4838 38.0273 33.3514 37.806 33.8292 37.2275C33.8292 37.2275 32.9833 37.7014 32.5055 37.6803C32.5055 37.6803 33.3731 37.438 33.8292 36.9226C33.8292 36.9226 33.124 37.2702 32.495 37.3225C32.495 37.3225 33.4282 37.0789 33.7858 36.6483C33.7858 36.6483 32.8966 36.9965 32.495 36.9755C32.495 36.9755 33.4282 36.7439 33.7641 36.2911C33.7641 36.2911 33.1457 36.6056 32.4733 36.6483C32.4733 36.6483 33.5255 36.2911 33.7207 35.9964C33.7207 35.9964 32.9505 36.3019 32.4838 36.2911C32.4838 36.2911 33.634 35.9333 33.7096 35.6807C33.7096 35.6807 32.9827 35.9543 32.3426 35.9333L32.267 35.9122Z" fill="#262626"/>
<path d="M23.7314 37.1334C22.3849 37.0792 21.1176 36.9391 20.0022 36.7208C18.7616 36.4778 17.8475 36.1483 17.1039 35.7598V38.6748C17.7856 39.2966 18.7219 39.8601 20.1769 40.2649C21.7336 40.6979 23.5932 40.9282 25.5552 40.9312C21.9994 40.7965 19.6149 39.6977 19.6149 39.6977C21.622 40.3454 22.6247 40.2504 22.6247 40.2504C20.9652 40.061 19.0336 39.1084 19.0336 39.1084C21.2954 39.8613 22.2931 39.7398 22.2931 39.7398C20.5196 39.5083 18.9028 38.6766 18.9028 38.6766C21.192 39.3712 21.9728 39.2347 21.9728 39.2347C20.1881 38.961 18.7944 38.2556 18.7944 38.2556C20.3944 38.7607 21.6418 38.7451 21.6418 38.7451C19.727 38.3765 18.686 37.8027 18.686 37.8027C20.0908 38.2447 21.2892 38.2189 21.2892 38.2189C19.841 37.9934 18.523 37.3499 18.523 37.3499C19.9551 37.7606 20.9478 37.7131 20.9478 37.7131C19.2499 37.4341 18.4096 36.9132 18.4096 36.9132C19.6787 37.2819 20.6386 37.2001 20.6386 37.2001C19.4996 37.0347 18.9425 36.7412 18.9425 36.7412C21.169 37.321 22.9717 37.2194 23.7314 37.1334Z" fill="white"/>
<path d="M26.0726 35.604L30.6433 34.8462L24.9156 35.2251L30.0212 34.4048L23.7147 34.7758L29.2831 33.9056L22.3259 34.3128L26.6526 33.6747C25.8414 33.6662 25.0303 33.6693 24.2185 33.6819L21.5879 33.8497L22.3985 33.7282C20.6063 33.7907 18.8123 33.9044 17.0134 34.0692C16.9638 34.154 16.9372 34.24 16.9372 34.3266C16.9372 35.4392 20.773 36.3196 25.4783 36.3196C28.3567 36.3196 30.5262 35.7862 30.5262 35.7862L27.3875 36.0105L31.8424 35.2527L26.0726 35.604Z" fill="#BDBEC2"/>
<path d="M18.5874 34.2423C18.5874 34.1371 18.6209 34.0337 18.6835 33.9326C18.2739 33.9633 17.8642 33.997 17.4546 34.0325C17.3964 34.1215 17.3654 34.2123 17.3654 34.3049C17.3654 35.1745 20.0189 35.907 23.6298 36.1259C20.6578 35.8042 18.5874 35.0819 18.5874 34.2423Z" fill="white"/>
<path d="M33.3879 33.9497C33.4232 34.0315 33.4418 34.1145 33.4418 34.1987C33.4418 34.577 33.0812 34.9601 32.446 35.3077C33.4009 34.9613 33.9624 34.5379 33.9624 34.0814C33.9624 34.0531 33.9599 34.0255 33.9555 33.9972C33.7665 33.9804 33.5775 33.9647 33.3879 33.9497Z" fill="white"/>
<defs>
<linearGradient id="paint0_linear" x1="27.7593" y1="21.7236" x2="36.8524" y2="12.354" gradientUnits="userSpaceOnUse">
<stop stop-color="#571313"/>
<stop offset="0.0545" stop-color="#5C1414"/>
<stop offset="0.6913" stop-color="#932222"/>
<stop offset="1" stop-color="#A82727"/>
</linearGradient>
<linearGradient id="paint1_linear" x1="23.8848" y1="19.7191" x2="23.8848" y2="5.11065" gradientUnits="userSpaceOnUse">
<stop stop-color="#571313"/>
<stop offset="0.0545" stop-color="#5C1414"/>
<stop offset="0.6913" stop-color="#932222"/>
<stop offset="1" stop-color="#A82727"/>
</linearGradient>
<linearGradient id="paint2_linear" x1="13.757" y1="12.924" x2="22.8818" y2="22.3263" gradientUnits="userSpaceOnUse">
<stop stop-color="#A82727"/>
<stop offset="1" stop-color="#571313"/>
</linearGradient>
<linearGradient id="paint3_linear" x1="25.5661" y1="20.729" x2="25.5661" y2="28.299" gradientUnits="userSpaceOnUse">
<stop stop-color="white"/>
<stop offset="0.3032" stop-color="white"/>
<stop offset="0.3457" stop-color="#8A8A8A"/>
<stop offset="0.7713" stop-color="white"/>
</linearGradient>
<linearGradient id="paint4_linear" x1="16.9794" y1="38.1306" x2="34.0207" y2="38.1306" gradientUnits="userSpaceOnUse">
<stop stop-color="#BDBEC2"/>
<stop offset="0.1777" stop-color="#919295"/>
<stop offset="0.3622" stop-color="#68696C"/>
<stop offset="0.4574" stop-color="#595A5C"/>
<stop offset="0.5507" stop-color="#636466"/>
<stop offset="0.7107" stop-color="#7E7F82"/>
<stop offset="0.9168" stop-color="#A9AAAE"/>
<stop offset="1" stop-color="#BDBEC2"/>
</linearGradient>
</defs>
</svg>
