<svg width="25" height="25" viewBox="0 0 25 25" fill="none" xmlns="http://www.w3.org/2000/svg">
<path d="M12.2995 10.6022C11.8501 10.6022 11.4768 10.8131 11.1726 11.2279C10.8684 11.6427 10.7197 12.1889 10.7197 12.8699C10.7197 13.4195 10.8269 13.8793 11.0447 14.2457C11.259 14.6156 11.5424 14.7988 11.895 14.7988C12.4136 14.7988 12.8561 14.5465 13.2294 14.0452C13.6027 13.5405 13.7894 12.9667 13.7929 12.3202C13.7929 11.7983 13.6408 11.3834 13.34 11.0723C13.0358 10.7543 12.6901 10.6022 12.2995 10.6022Z" fill="#5E5E7B"/>
<path d="M12.5 0C5.59665 0 0 5.59665 0 12.5C0 19.4033 5.59665 25 12.5 25C19.4033 25 25 19.4033 25 12.5C25.0035 5.59665 19.4068 0 12.5 0ZM18.947 15.2793C18.0483 16.3579 16.9801 16.8937 15.746 16.8937C14.906 16.8937 14.2699 16.5722 13.8378 15.9223C13.264 16.5964 12.5761 16.9386 11.7706 16.9386C10.8684 16.9386 10.0975 16.5583 9.45451 15.7944C8.81153 15.0339 8.4935 14.0279 8.4935 12.7869C8.4935 11.5148 8.85301 10.4743 9.57895 9.66883C10.3014 8.86338 11.1691 8.45547 12.1854 8.45547C12.8249 8.45547 13.4126 8.67671 13.9519 9.11574L14.0867 8.62486H16.1954L15.5835 13.6338C15.549 13.9761 15.5282 14.2734 15.5282 14.5257C15.5282 14.8403 15.6734 14.9924 15.9638 14.9924C16.4996 14.9924 17.0181 14.6571 17.5159 13.9795C18.0137 13.3054 18.2626 12.4551 18.2626 11.4353C18.2626 9.94538 17.7199 8.71128 16.6309 7.72954C15.5455 6.74779 14.2111 6.25691 12.6314 6.25691C10.9202 6.25691 9.47179 6.85495 8.29992 8.04757C7.12458 9.24364 6.53346 10.7335 6.53346 12.5173C6.53346 14.1627 7.0831 15.5939 8.17893 16.8142C9.27821 18.0379 10.8303 18.6463 12.8353 18.6463C14.0936 18.6463 15.3865 18.3628 16.7035 17.7959C17.2152 17.5781 17.7994 17.8166 18.0068 18.3283C18.2073 18.8261 17.9687 19.393 17.4744 19.6038C15.9603 20.2537 14.4151 20.5752 12.8388 20.5752C10.2254 20.5752 8.15127 19.7801 6.60606 18.1934C5.06775 16.6067 4.29688 14.7124 4.29688 12.5069C4.29688 10.2081 5.10578 8.28609 6.72359 6.74087C8.3414 5.19566 10.3014 4.42478 12.6002 4.42478C14.7884 4.42478 16.6206 5.10232 18.0932 6.46087C19.5693 7.81941 20.3021 9.46142 20.3021 11.3869C20.2952 12.9079 19.8458 14.2042 18.947 15.2793Z" fill="#5E5E7B"/>
</svg>
