<svg width="20" height="20" viewBox="0 0 20 20" fill="none" xmlns="http://www.w3.org/2000/svg">
<g opacity="0.3">
<path d="M10 0C4.47702 0 0 4.47702 0 10C0 15.523 4.47702 20 10 20C15.523 20 20 15.523 20 10C20 4.47702 15.523 0 10 0ZM9.99868 14.7137C5.54064 14.7137 1.92635 10.0088 1.92635 10.0088C1.92635 10.0088 5.54064 5.30399 9.99868 5.30399C14.4576 5.30399 18.0723 10.0088 18.0723 10.0088C18.0723 10.0088 14.4576 14.7137 9.99868 14.7137Z" fill="#6F6EFF"/>
<path d="M9.85121 6.3278C7.818 6.3278 6.17113 7.97644 6.17113 10.0088C6.17113 12.0411 7.818 13.6897 9.85121 13.6897C11.8844 13.6897 13.5313 12.0428 13.5313 10.0088C13.5313 7.97644 11.8844 6.3278 9.85121 6.3278ZM11.4177 10.1562C10.7453 10.1562 10.1996 9.61051 10.1996 8.93807C10.1996 8.26475 10.7453 7.71992 11.4177 7.71992C12.0902 7.71992 12.6359 8.26475 12.6359 8.93807C12.6368 9.61051 12.0902 10.1562 11.4177 10.1562Z" fill="#6F6EFF"/>
</g>
</svg>
