<svg width="20" height="21" viewBox="0 0 20 21" fill="none" xmlns="http://www.w3.org/2000/svg">
<path fill-rule="evenodd" clip-rule="evenodd" d="M10 20.8467C15.5228 20.8467 20 16.3695 20 10.8467C20 5.32383 15.5228 0.84668 10 0.84668C4.47715 0.84668 0 5.32383 0 10.8467C0 16.3695 4.47715 20.8467 10 20.8467ZM8.8544 13.4831L8 4.84668H12L11.1456 13.4831H8.8544ZM10 14.3922C10.9903 14.3922 11.8447 15.174 11.8447 16.0831C11.8447 17.0649 11.0291 17.8467 10 17.8467C8.9903 17.8467 8.1553 17.0649 8.1553 16.1194C8.1553 15.174 8.9903 14.3922 10 14.3922Z" fill="#6F6EFF"/>
</svg>
