<svg width="26" height="26" viewBox="0 0 26 26" fill="none" xmlns="http://www.w3.org/2000/svg">
<mask id="mask0" mask-type="alpha" maskUnits="userSpaceOnUse" x="0" y="0" width="26" height="26">
<path d="M13 0C20.1797 -3.13834e-07 26 5.8203 26 13C26 20.1797 20.1797 26 13 26C5.8203 26 3.13835e-07 20.1797 0 13C-3.13835e-07 5.8203 5.8203 3.13835e-07 13 0Z" fill="#5E5E7B"/>
</mask>
<g mask="url(#mask0)">
<path d="M13 3C18.5228 3 23 7.47715 23 13H29C29 4.16344 21.8366 -3 13 -3V3ZM23 13C23 18.5228 18.5228 23 13 23V29C21.8366 29 29 21.8366 29 13H23ZM13 23C7.47715 23 3 18.5228 3 13H-3C-3 21.8366 4.16344 29 13 29V23ZM3 13C3 7.47715 7.47715 3 13 3V-3C4.16344 -3 -3 4.16344 -3 13H3Z" fill="#5E5E7B"/>
<path d="M15 7H11L11.8544 15.6364H14.1456L15 7ZM14.8447 18.2364C14.8447 17.3273 13.9903 16.5455 13 16.5455C11.9903 16.5455 11.1553 17.3273 11.1553 18.2727C11.1553 19.2182 11.9903 20 13 20C14.0291 20 14.8447 19.2182 14.8447 18.2364Z" fill="#5E5E7B"/>
</g>
</svg>
