<svg width="25" height="25" viewBox="0 0 25 25" fill="none" xmlns="http://www.w3.org/2000/svg">
<path d="M12.5 0.000976562C5.60673 0.000976562 0 5.6077 0 12.501C0 14.8511 0.65424 17.1355 1.89327 19.1165C1.39985 20.8453 0.508041 24.1201 0.500731 24.153C0.453216 24.3212 0.504386 24.5039 0.628655 24.6245C0.756579 24.7451 0.939327 24.7926 1.1038 24.7378L6.05629 23.2137C7.99708 24.3833 10.2193 25.001 12.5 25.001C19.3933 25.001 25 19.3943 25 12.501C25 5.6077 19.3933 0.000976562 12.5 0.000976562ZM18.5928 17.6399C18.231 18.4111 17.7047 19.0507 16.9444 19.4564C16.7288 19.5733 16.473 19.6099 16.2317 19.683C15.9539 19.5989 15.6871 19.5405 15.4423 19.4381C12.8874 18.3782 10.5373 17.0112 8.67325 14.9169C7.6133 13.7254 6.78728 12.3804 6.08553 10.9549C5.75292 10.2788 5.47515 9.577 5.1864 8.88256C4.9269 8.24659 5.31067 7.5887 5.71272 7.1099C6.09284 6.66033 6.57895 6.31677 7.10526 6.06092C7.51828 5.86355 7.92398 5.97685 8.22368 6.32773C8.87427 7.08431 9.47003 7.87744 9.95614 8.75098C10.2522 9.28826 10.1718 9.94615 9.6345 10.3116C9.50292 10.3994 9.38231 10.5054 9.2617 10.604C9.1557 10.6918 9.05336 10.7831 8.98026 10.9001C8.84503 11.1194 8.83772 11.3752 8.92544 11.6128C9.59064 13.4403 10.7091 14.8621 12.5512 15.626C12.8472 15.7466 13.1396 15.8891 13.4795 15.8526C14.0461 15.7868 14.2325 15.1655 14.6308 14.8365C15.0183 14.5185 15.5154 14.5149 15.9357 14.778C16.356 15.0448 16.7617 15.3263 17.1637 15.615C17.5585 15.8964 17.9532 16.1742 18.3187 16.4959C18.6696 16.8138 18.7902 17.2195 18.5928 17.6399ZM15.2961 11.6859C15.1206 11.6896 15.212 11.6859 15.2778 11.6823C15.011 11.6786 14.8684 11.5288 14.8392 11.2802C14.8173 11.1011 14.8026 10.922 14.7588 10.7466C14.6747 10.403 14.492 10.085 14.2032 9.87671C14.068 9.77802 13.9145 9.70492 13.7537 9.65741C13.549 9.59893 13.337 9.61355 13.1323 9.56238C12.9094 9.50756 12.7887 9.32846 12.8216 9.12013C12.8545 8.93007 13.0373 8.78387 13.2456 8.79849C14.5395 8.89352 15.4678 9.56238 15.5994 11.0865C15.6104 11.1925 15.6213 11.3095 15.5958 11.4118C15.5556 11.5836 15.4349 11.6676 15.3107 11.6823C15.3253 11.6823 15.3289 11.6823 15.2961 11.6859ZM14.4883 8.19908C14.0899 8.00536 13.6623 7.88475 13.2237 7.81165C13.0336 7.77875 12.8399 7.76048 12.6499 7.73489C12.4196 7.702 12.2953 7.5558 12.3063 7.32554C12.3173 7.1099 12.4744 6.95639 12.7083 6.97101C13.4759 7.01487 14.2142 7.17934 14.8977 7.54118C16.2829 8.27583 17.076 9.43446 17.3063 10.9805C17.3173 11.05 17.3319 11.1194 17.3392 11.1888C17.3538 11.3643 17.3611 11.5361 17.3721 11.7663C17.3684 11.8065 17.3648 11.9052 17.3392 12.0002C17.2515 12.3365 16.7434 12.3767 16.6265 12.0405C16.5899 11.9381 16.5863 11.8248 16.5863 11.7188C16.5863 11.0097 16.4327 10.3043 16.0746 9.6903C15.7054 9.05068 15.1462 8.52071 14.4883 8.19908ZM18.7719 12.9798C18.5051 12.9834 18.3845 12.7605 18.3662 12.5193C18.3333 12.0441 18.3077 11.5653 18.242 11.0938C17.8947 8.60478 15.9101 6.54703 13.4357 6.10478C13.0629 6.03899 12.6827 6.02071 12.3026 5.98051C12.0651 5.95492 11.7507 5.9403 11.6996 5.64425C11.6557 5.39571 11.864 5.19835 12.1016 5.18373C12.1674 5.18007 12.2295 5.18373 12.2953 5.18373C15.53 5.2751 12.4379 5.19104 12.299 5.18373C15.6396 5.27875 18.3808 7.49732 18.9693 10.7978C19.068 11.3606 19.1045 11.9345 19.1484 12.5083C19.1667 12.7495 19.0314 12.9761 18.7719 12.9798Z" fill="#D536FD"/>
</svg>
