<svg width="25" height="25" viewBox="0 0 25 25" fill="none" xmlns="http://www.w3.org/2000/svg">
<path d="M12.5 0.000976562C5.60673 0.000976562 0 5.6077 0 12.501C0 14.8511 0.65424 17.1355 1.89327 19.1165C1.39985 20.8453 0.508041 24.1201 0.500731 24.153C0.453216 24.3212 0.504386 24.5039 0.628655 24.6245C0.756579 24.7451 0.939327 24.7926 1.1038 24.7378L6.05629 23.2137C7.99708 24.3833 10.2193 25.001 12.5 25.001C19.3933 25.001 25 19.3943 25 12.501C25 5.6077 19.3933 0.000976562 12.5 0.000976562ZM20.3326 17.7057C20.0146 18.6084 18.7463 19.354 17.7376 19.5733C17.0468 19.7195 16.144 19.8365 13.1031 18.5792C9.21418 16.9674 6.71053 13.02 6.51681 12.7605C6.33041 12.5046 4.94518 10.6698 4.94518 8.76925C4.94518 6.86867 5.91009 5.94761 6.29751 5.54922C6.6155 5.22393 7.14547 5.07408 7.64985 5.07408C7.81433 5.07408 7.96053 5.08139 8.0921 5.0887C8.47953 5.10697 8.6769 5.1289 8.93275 5.74294C9.25073 6.51048 10.0292 8.41106 10.1206 8.60478C10.2156 8.79849 10.3107 9.0653 10.1754 9.32115C10.0512 9.58431 9.94152 9.70492 9.74781 9.92788C9.55409 10.1545 9.36769 10.3263 9.17398 10.5675C8.99488 10.7758 8.79386 11.0024 9.01681 11.3899C9.24342 11.77 10.0183 13.0383 11.1623 14.058C12.6389 15.3738 13.8377 15.7941 14.2654 15.9695C14.5833 16.1011 14.9634 16.0719 15.1974 15.8233C15.4934 15.5054 15.8589 14.9754 16.2317 14.4527C16.4949 14.0799 16.8311 14.0324 17.182 14.164C17.5402 14.2883 19.4298 15.2239 19.8173 15.414C20.2047 15.6077 20.4605 15.7027 20.5556 15.8672C20.6542 16.0353 20.6542 16.8029 20.3326 17.7057Z" fill="#47D25C"/>
</svg>
