<svg width="45" height="46" viewBox="0 0 45 46" fill="none" xmlns="http://www.w3.org/2000/svg">
<path d="M30.75 34.7449L28.7942 31.2888V24.8889C28.7942 24.7865 28.7738 24.685 28.7346 24.5903C28.6954 24.4957 28.6381 24.4096 28.5657 24.3372C28.4932 24.2647 28.4071 24.2074 28.3125 24.1682C28.2179 24.129 28.1166 24.1089 28.0142 24.1089H17.6392C17.4323 24.1089 17.2339 24.1909 17.0877 24.3372C16.9414 24.4834 16.8591 24.682 16.8591 24.8889V31.2888L14.9031 34.7449C14.6911 35.1199 14.8682 35.4238 15.3032 35.4238H30.3572C30.7852 35.4238 30.962 35.1199 30.75 34.7449ZM29.4851 34.6448H25.1641L24.7371 33.7559C24.6928 33.6747 24.6286 33.6061 24.5503 33.5569C24.472 33.5077 24.3824 33.4795 24.29 33.4749H21.4822C21.3899 33.4797 21.3004 33.5079 21.2222 33.5571C21.1439 33.6063 21.0795 33.6748 21.0352 33.7559L20.6082 34.6448H16.1702C15.9982 34.6448 15.9272 34.5228 16.0122 34.3738L17.1611 32.3428C17.2118 32.2639 17.2806 32.1982 17.3616 32.1511C17.4426 32.104 17.5336 32.0768 17.6272 32.0718H28.0271C28.1207 32.0768 28.2117 32.104 28.2927 32.1511C28.3738 32.1982 28.4426 32.2639 28.4932 32.3428L29.6431 34.3738C29.7271 34.5218 29.6571 34.6428 29.4851 34.6428V34.6448Z" fill="#6F6EFF"/>
<path d="M0 22.9497C0 28.8773 2.3547 34.5619 6.54614 38.7534C10.7376 42.9448 16.4225 45.2995 22.3501 45.2995C28.2777 45.2995 33.9624 42.9448 38.1538 38.7534C42.3452 34.5619 44.7 28.8773 44.7 22.9497C44.7 16.6177 42.5431 7.71253 33.8601 3.66353L32.873 36.0156C32.8743 36.0396 32.8743 36.0636 32.873 36.0876C32.873 37.5956 27.114 38.8186 20.011 38.8186C12.908 38.8186 7.14795 37.5956 7.14795 36.0876C7.14674 36.0636 7.14674 36.0396 7.14795 36.0156L7.15405 36.0056C7.20401 35.7729 7.3374 35.5665 7.52905 35.4255L29.3159 1.7065C25.9593 0.609841 22.3909 0.323559 18.9023 0.871048C15.4138 1.41854 12.1044 2.78422 9.24512 4.8564C6.38583 6.92858 4.05788 9.6484 2.45166 12.7932C0.845444 15.9379 0.0066027 19.4184 0.00390625 22.9497H0Z" fill="#6F6EFF"/>
</svg>
