<svg width="30" height="31" viewBox="0 0 30 31" fill="none" xmlns="http://www.w3.org/2000/svg">
<path d="M0 15.3555C0 23.6397 6.71576 30.3555 15 30.3555C23.2842 30.3555 30 23.6397 30 15.3555C30 10.1509 27.3491 5.56564 23.3241 2.87532L22.6701 24.3391H22.6671C22.6694 24.3558 22.6701 24.373 22.6701 24.3897C22.6701 25.4539 18.606 26.3166 13.5927 26.3166C8.5794 26.3166 4.51526 25.4539 4.51526 24.3897C4.51526 24.3726 4.51638 24.3558 4.51824 24.3391H4.51526L4.51973 24.3324C4.53908 24.1917 4.6299 24.0547 4.78437 23.923L19.5566 1.06043C18.1195 0.602615 16.5886 0.355469 15 0.355469C6.71576 0.355469 0 7.07123 0 15.3555Z" fill="#5E5E7B"/>
<path d="M16.3801 16.8034C16.4095 16.2577 15.8638 15.9774 15.3774 15.9774C14.8611 15.9923 14.3746 16.2871 14.3746 16.995C13.5338 16.995 13.003 16.995 12.1477 16.995C12.1034 14.7532 13.6224 13.6913 15.4514 13.647C17.6046 13.5882 18.9174 15.0186 18.9174 16.7442C18.9174 18.9268 16.7493 19.4137 16.8528 21.1835C15.9826 21.1835 15.0978 21.1835 14.2425 21.1835C13.9909 18.8531 16.2621 18.4697 16.3801 16.8034ZM14.094 22.924C14.094 22.098 14.7427 21.5673 15.5393 21.5673C16.3503 21.5673 16.9994 22.098 16.9994 22.924C16.9994 23.735 16.3507 24.2661 15.5393 24.2661C14.7427 24.2658 14.094 23.735 14.094 22.924Z" fill="#5E5E7B"/>
</svg>
