<svg width="30" height="31" viewBox="0 0 30 31" fill="none" xmlns="http://www.w3.org/2000/svg">
<path d="M15.0228 0.577695C7.03305 0.647557 0.473904 7.18719 0.305756 15.2556C0.24609 18.1583 1.0014 20.8774 2.35744 23.1965C2.9663 24.2363 1.24006 27.354 0.111843 29.1882C-0.217674 29.7238 0.227106 30.4019 0.844102 30.3019C3.51549 29.8677 8.6413 29.1129 9.71393 29.5403C11.3981 30.2101 13.2328 30.5786 15.1516 30.5786C23.3936 30.5786 30.1006 23.7143 29.9989 15.3898C29.8985 7.14746 23.22 0.507833 15.0228 0.577695ZM10.4055 17.1528C9.54442 17.1528 8.84607 16.4473 8.84607 15.5775C8.84607 14.7076 9.54442 14.0022 10.4055 14.0022C11.2666 14.0022 11.9649 14.7076 11.9649 15.5775C11.9649 16.4473 11.2666 17.1528 10.4055 17.1528ZM15.1516 17.1528C14.2905 17.1528 13.5922 16.4473 13.5922 15.5775C13.5922 14.7076 14.2905 14.0022 15.1516 14.0022C16.0127 14.0022 16.7111 14.7076 16.7111 15.5775C16.7111 16.4473 16.0127 17.1528 15.1516 17.1528ZM19.8978 17.1528C19.0367 17.1528 18.3383 16.4473 18.3383 15.5775C18.3383 14.7076 19.0367 14.0022 19.8978 14.0022C20.7588 14.0022 21.4572 14.7076 21.4572 15.5775C21.4572 16.4473 20.7588 17.1528 19.8978 17.1528Z" fill="#5E5E7B"/>
</svg>
