<svg width="19" height="19" viewBox="0 0 19 19" fill="none" xmlns="http://www.w3.org/2000/svg">
<path opacity="0.8" fill-rule="evenodd" clip-rule="evenodd" d="M18.7773 9.99023C18.7773 14.9608 14.7479 18.9902 9.77734 18.9902C4.80678 18.9902 0.777344 14.9608 0.777344 9.99023C0.777344 5.01967 4.80678 0.990234 9.77734 0.990234C14.7479 0.990234 18.7773 5.01967 18.7773 9.99023ZM12.7611 9.4449L12.3068 8.92787C12.1813 8.78517 11.9642 8.77138 11.8208 8.89616L10.4662 10.0833V5.16459C10.4662 4.97432 10.3117 4.81991 10.1215 4.81991H9.43211C9.24185 4.81991 9.08743 4.97432 9.08743 5.16459V10.0833L7.73281 8.89616C7.59011 8.77138 7.37296 8.78517 7.2468 8.92787L6.79251 9.44421C6.66635 9.5876 6.68083 9.80613 6.82422 9.9316L9.54999 12.3175C9.68029 12.4313 9.874 12.4313 10.0043 12.3175L12.7294 9.9316C12.8728 9.80613 12.8872 9.5876 12.7611 9.4449ZM5.64111 14.1265C5.64111 13.9362 5.79553 13.7818 5.9858 13.7818H13.5689C13.7592 13.7818 13.9136 13.9362 13.9136 14.1265V14.8159C13.9136 15.0061 13.7592 15.1606 13.5689 15.1606H5.9858C5.79553 15.1606 5.64111 15.0061 5.64111 14.8159V14.1265Z" fill="#5E5E7B"/>
</svg>
