<svg width="22" height="23" viewBox="0 0 22 23" fill="none" xmlns="http://www.w3.org/2000/svg">
<path d="M20.8555 19.1044C20.5253 19.2279 20.1568 19.2899 19.7756 19.2899H13.7497L14.0501 21.0434C14.0813 21.2223 14.0287 21.4055 13.9082 21.5446C13.7876 21.6838 13.6106 21.7633 13.4234 21.7633H8.34217C8.15547 21.7633 7.978 21.6838 7.85743 21.5446C7.73636 21.406 7.68434 21.2223 7.71546 21.0434L8.01593 19.2899H1.90538C1.5242 19.2899 1.15566 19.2279 0.825536 19.1044L0.419074 20.6998C0.266408 21.2564 0.393792 21.8376 0.761844 22.2825C1.11726 22.7401 1.67638 23 2.26079 23H19.4192C20.0036 23 20.5628 22.7401 20.9182 22.2825C21.2867 21.8376 21.4136 21.2559 21.2614 20.6998L20.8555 19.1044ZM3.17485 21.7633C2.82381 21.7633 2.53987 21.4864 2.53987 21.1452C2.53987 20.8035 2.8243 20.5271 3.17485 20.5271C3.52588 20.5271 3.80982 20.8039 3.80982 21.1452C3.80982 21.4864 3.5254 21.7633 3.17485 21.7633ZM5.71572 21.7633C5.36469 21.7633 5.08075 21.4864 5.08075 21.1452C5.08075 20.8035 5.36517 20.5271 5.71572 20.5271C6.06676 20.5271 6.3507 20.8039 6.3507 21.1452C6.3507 21.4864 6.06627 21.7633 5.71572 21.7633ZM15.9633 21.7633C15.6123 21.7633 15.3284 21.4864 15.3284 21.1452C15.3284 20.8035 15.6128 20.5271 15.9633 20.5271C16.3139 20.5271 16.5983 20.8039 16.5983 21.1452C16.5988 21.4864 16.3144 21.7633 15.9633 21.7633ZM18.5042 21.7633C18.1532 21.7633 17.8692 21.4864 17.8692 21.1452C17.8692 20.8035 18.1537 20.5271 18.5042 20.5271C18.8552 20.5271 19.1392 20.8039 19.1392 21.1452C19.1392 21.4864 18.8552 21.7633 18.5042 21.7633Z" fill="#6F6EFF"/>
<path d="M22 18.1787V15.4233C22 14.3806 21.613 13.3725 20.9109 12.5855C20.2084 11.7984 19.2374 11.284 18.1765 11.1377L13.1697 11.0459V13.5202H11.8992V10.8713L10.6288 10.6961V13.1496H9.35835V10.521L8.68059 10.4278V9.56311H5.63164V8.32643H8.68059V7.08975H5.63164V5.85307H8.68059V3.99402L3.20162 2.843H0V15.9112C0 17.1526 1.03074 18.164 2.30312 18.1778L22 18.1787ZM3.68198 18.1787H13.9768Z" fill="#6F6EFF"/>
<path d="M8.68106 0H8.04609C6.53644 0 5.11771 0.667325 4.17643 1.78237L8.68155 2.72846L8.68106 0Z" fill="#6F6EFF"/>
</svg>
