<svg width="30" height="27" viewBox="0 0 30 27" fill="none" xmlns="http://www.w3.org/2000/svg">
<path d="M3.53359 5.59682C3.24712 6.10703 2.82392 6.54411 2.52894 6.54411H1.99229C0.891766 6.54411 0 7.40892 0 8.4755V10.1919C0 10.5883 0.1231 10.9561 0.334696 11.2624C0.66769 11.7451 1.09542 12.4081 1.07159 12.9881C0.983665 15.1241 1.25539 18.3843 3.23804 21.0106C3.67144 21.5846 4.68461 22.0673 5.41243 22.1597L10.4164 22.7919C10.4697 22.7985 10.5208 22.8013 10.5701 22.8007C10.6552 22.8002 11.142 23.0316 11.6565 23.3291L17.6226 26.7718C17.8881 26.9258 18.1814 26.9989 18.4712 26.9989C19.0368 26.9989 19.5899 26.7207 19.9025 26.2193L21.3082 23.9619C21.6781 23.3681 21.8488 22.4082 21.7053 21.7281L21.2447 19.5471C21.125 18.9781 21.5266 18.4646 21.8959 18.0599C22.1154 17.818 22.2499 17.5035 22.2499 17.166V14.4841C22.2499 13.7721 22.8433 13.1492 23.5734 13.0915L26.3496 12.8716C26.6333 12.8491 26.8954 12.7589 27.1098 12.6247C27.4848 12.3894 28.1178 11.8974 28.5121 11.4597C28.8162 11.1205 29.0011 10.6774 29.0011 10.1925V8.47605C29.0011 7.40947 28.1099 6.5452 27.0088 6.5452C27.0088 6.5452 26.8534 6.5452 26.6599 6.5452C26.4676 6.5452 26.108 6.11692 25.8005 5.61772C24.3908 3.33006 21.1879 0 14.5008 0C7.83302 0 4.81962 3.31026 3.53359 5.59682ZM20.7058 10.1419L21.0813 9.20507C21.2991 8.66408 21.7717 8.2248 22.1387 8.2248C22.5057 8.2248 22.6271 8.66353 22.4099 9.20507L22.0338 10.1419C21.8165 10.6829 21.3439 11.1216 20.9763 11.1216C20.6099 11.1222 20.4885 10.6834 20.7058 10.1419ZM17.9664 10.1419L18.3419 9.20507C18.5597 8.66408 19.0323 8.2248 19.3993 8.2248C19.7663 8.2248 19.8877 8.66353 19.6705 9.20507L19.2944 10.1419C19.0771 10.6829 18.6045 11.1216 18.2369 11.1216C17.8699 11.1222 17.748 10.6834 17.9664 10.1419ZM11.6043 15.0196L15.5157 14.3764C16.239 14.2576 17.0479 14.6952 17.3236 15.3544L18.2092 17.4739C18.326 17.7537 18.5404 18.0038 18.8048 18.1952C19.2314 18.5047 19.7783 19.0254 19.8991 19.5944L20.404 21.9859C20.4811 22.3516 20.3699 22.9778 20.1702 23.2972L18.7645 25.5546C18.6686 25.708 18.4605 25.758 18.3011 25.6668L12.4337 22.2806C11.9191 21.9838 11.4999 21.7314 11.4994 21.7177C11.4988 21.7094 11.4982 21.7012 11.4965 21.6924L10.5299 16.5018C10.4005 15.802 10.8804 15.1378 11.6043 15.0196Z" fill="#6F6EFF"/>
</svg>
