<svg width="36" height="26" viewBox="0 0 36 26" fill="none" xmlns="http://www.w3.org/2000/svg">
<path d="M35.9932 11.9758C35.7243 9.35308 34.7663 6.84121 32.9383 4.92689C33.0761 4.4203 32.9491 3.86432 32.5646 3.45953C32.4256 3.31315 32.2752 3.16918 32.1187 3.02883C32.1506 2.88306 32.1578 2.73187 32.1344 2.58248C32.0832 2.24937 31.8937 1.94879 31.6157 1.75905C30.3659 0.9073 28.8935 0.322402 27.2387 0.020617C26.8819 -0.0438361 26.5179 0.0519401 26.2399 0.284453C26.1478 0.361556 26.0696 0.451309 26.0052 0.548892C25.5359 0.503112 25.0545 0.479018 24.5683 0.477813L21.7366 0.112177C21.7269 0.110972 21.677 0.10796 21.6692 0.10796H14.3317C14.3221 0.10796 14.2728 0.110972 14.2644 0.112177L11.4326 0.477813C10.9464 0.479018 10.4651 0.503112 9.99572 0.548892C9.93073 0.451309 9.85311 0.361556 9.76104 0.284453C9.48305 0.0519401 9.1184 -0.0438361 8.76158 0.020617C7.10744 0.322402 5.63502 0.9073 4.38523 1.75905C4.10664 1.94879 3.91769 2.24937 3.86655 2.58248C3.84368 2.73187 3.8503 2.88366 3.88279 3.02883C3.72574 3.16918 3.57591 3.31315 3.43692 3.45953C3.05241 3.86432 2.92485 4.4203 3.06324 4.92689C1.24483 6.82494 0.277258 9.33982 0.00648159 11.9758C-0.0566995 12.5932 0.348261 13.1703 0.948783 13.3185L4.75168 14.2575C5.40275 14.4184 6.05442 14.0003 6.18439 13.3474C6.44313 12.0463 7.0238 11.0963 7.39687 10.5921C7.45945 10.6174 7.52624 10.6319 7.59544 10.6319H9.6058C9.6058 11.3698 9.6058 17.2501 9.6058 17.9561L8.8753 18.8428C8.60573 19.0855 8.45229 19.4295 8.45229 19.7945C8.45229 20.115 8.45229 22.4973 8.45229 22.8178C8.45229 23.1515 8.58888 23.4683 8.82897 23.6972L9.55225 24.6556C9.66958 24.811 9.97706 25.0013 10.3429 25.0013H25.6562C26.0082 25.0013 26.3217 24.8206 26.4469 24.6556L27.1701 23.6972C27.403 23.4762 27.5468 23.1617 27.5468 22.8178C27.5468 22.4979 27.5468 20.1156 27.5468 19.7945C27.5468 19.4295 27.3934 19.0855 27.1238 18.8428L26.3933 17.9561V13.9774C26.3933 13.6859 26.1574 13.4498 25.8662 13.4498C25.575 13.4498 25.3391 13.6859 25.3391 13.9774V15.0057H21.2582C21.1517 15.0057 21.0644 14.9189 21.0644 14.8117V9.22116C21.0644 9.08502 21.1036 8.9525 21.1776 8.83805L24.0009 4.47391V7.70259C24.0009 7.79235 24.0237 7.88089 24.0677 7.9598L25.3391 10.2416V11.5138C25.3391 11.8053 25.575 12.0414 25.8662 12.0414C26.1574 12.0414 26.3933 11.8053 26.3933 11.5138V10.6325H28.4037C28.4729 10.6325 28.5397 10.618 28.6017 10.5927C28.9747 11.0969 29.5554 12.0469 29.8141 13.348C29.9441 14.0009 30.5964 14.4184 31.2468 14.2581L35.0497 13.3191C35.6515 13.1703 36.0564 12.5932 35.9932 11.9758ZM21.0229 1.16391C20.6174 2.52947 19.5872 3.54687 18.2899 4.14683C18.1058 4.23236 17.8946 4.23236 17.7098 4.14683C16.4167 3.54868 15.3818 2.52526 14.9768 1.16391C14.9768 1.16391 21.0229 1.16391 21.0229 1.16391ZM11.9321 7.9592C11.976 7.88029 11.9989 7.79174 11.9989 7.70199V4.47331L14.8222 8.83745C14.8962 8.9519 14.9353 9.08442 14.9353 9.22055V14.8569C14.9353 14.9382 14.8691 15.0045 14.7879 15.0045H10.6612V10.2404L11.9321 7.9592ZM4.97853 2.63127C6.10557 1.86325 7.442 1.33438 8.94992 1.0591C9.05462 1.04042 9.14428 1.12174 9.14428 1.22113V6.07681C9.14428 6.38943 8.95533 6.6611 8.66229 6.76953C8.37407 6.87615 8.05696 6.80326 7.84575 6.55569L4.95025 2.88065C4.87624 2.77283 4.90813 2.67946 4.97853 2.63127ZM5.15063 13.1414C5.13739 13.207 5.0712 13.2486 5.00441 13.2323L1.20151 12.2932C1.10704 12.2697 1.04566 12.1818 1.05589 12.0836C1.08357 11.8137 1.12148 11.5282 1.17142 11.23C3.6764 10.6939 4.96108 9.23923 5.54295 8.31821L6.68322 9.78798C6.24878 10.3343 5.47917 11.4879 5.15063 13.1414ZM25.6177 18.6735L26.3386 19.5487C26.4029 19.627 26.4926 19.6614 26.4926 19.7945V20.7812H19.2304C18.9392 20.7812 18.7033 21.0173 18.7033 21.3094C18.7033 21.601 18.9392 21.8371 19.2304 21.8371H26.4926V22.8172C26.4926 22.916 26.4276 22.9298 26.359 23.0202L25.661 23.9448C25.6598 23.9448 25.658 23.9448 25.6568 23.9448H10.3435C10.3423 23.9448 10.3405 23.9448 10.3393 23.9448L9.6413 23.0202C9.57992 22.9388 9.50772 22.9141 9.50772 22.8172V21.8371H16.7699C17.0612 21.8371 17.297 21.601 17.297 21.3094C17.297 21.0179 17.0612 20.7812 16.7699 20.7812H9.50712V19.7945C9.50712 19.662 9.59557 19.6282 9.66116 19.5487L10.382 18.6735H25.6177V18.6735ZM26.8554 1.22174C26.8554 1.11933 26.9481 1.04103 27.0498 1.0597C28.5583 1.33438 29.8948 1.86386 31.0218 2.63187C31.0922 2.67946 31.1247 2.77283 31.0501 2.88125L28.16 6.55027L28.1546 6.55689C27.7063 7.08155 26.8566 6.75868 26.8566 6.07741V1.22174H26.8554ZM34.7982 12.2932L30.9953 13.2323C30.9291 13.2486 30.8623 13.207 30.8491 13.1414C30.5206 11.4885 29.7509 10.3343 29.3165 9.78859L30.4568 8.31881C31.0386 9.23983 32.3227 10.6945 34.8283 11.2307C34.8782 11.5288 34.9162 11.8143 34.9438 12.0842C34.9541 12.1818 34.8927 12.2703 34.7982 12.2932Z" fill="#6F6EFF"/>
</svg>
