<svg width="35" height="23" viewBox="0 0 35 23" fill="none" xmlns="http://www.w3.org/2000/svg">
<g opacity="0.5">
<path d="M25.867 3.86224C25.6921 3.56293 25.3643 3.36851 25.011 3.35478C24.686 3.34215 24.431 3.50197 24.1602 3.65135C23.3403 4.12421 22.4336 4.48503 21.5082 4.69372C17.6872 5.5576 14.5088 4.64374 12.1209 3.09282C11.3473 2.59031 10.7362 1.88294 10.1776 1.1657C9.99031 0.925151 9.7601 0.746663 9.44469 0.701629C9.08075 0.650005 8.70779 0.79609 8.48209 1.07892C8.26486 1.35133 8.20617 1.72423 8.33087 2.04715C8.3777 2.16798 8.45218 2.27122 8.52554 2.37722C8.64685 2.55186 8.77155 2.72321 8.89794 2.89456C9.46613 3.66563 10.163 4.34992 10.9196 4.94525C11.8235 5.65536 12.8725 6.21554 13.9801 6.55768C13.747 7.25681 13.4266 7.92573 13.0604 8.56883C12.6846 9.22841 11.8523 10.0846 11.8523 10.0846C11.8523 10.0846 10.4654 9.94951 7.6645 8.98842C7.65434 8.94283 7.64193 8.90714 7.63234 8.88077C7.61992 8.84618 7.59679 8.82915 7.57986 8.82146C7.55899 8.81157 6.57777 8.41396 6.14668 8.14266C5.98644 8.04161 4.93017 7.41168 4.78686 7.25351C4.53577 6.97617 3.72438 6.818 3.38189 6.76198L2.92824 6.51869L3.13926 6.14579C3.19795 6.04199 3.15901 5.91183 3.05293 5.85472C2.94686 5.7976 2.81257 5.83549 2.75389 5.93874L0.0900897 10.6497C-0.103446 10.9919 0.0252016 11.4235 0.376726 11.6119C0.630071 11.7476 0.931377 11.7207 1.152 11.5669C1.42227 11.6355 1.75969 11.5927 2.07059 11.2797C2.23252 11.1165 2.47966 10.8727 2.75614 10.6382C2.75614 10.6382 3.99861 9.62768 5.73196 10.8853L6.42598 11.3977C6.45363 11.412 6.52755 11.3313 6.61613 11.2143C8.19884 12.0381 9.6371 12.5939 11.4201 12.8251C11.5296 12.8394 11.8721 12.88 11.8721 12.88C11.8721 12.88 12.6479 14.2118 13.0124 15.0032C13.3498 15.7353 13.6116 16.5041 13.7826 17.29C13.7064 17.34 13.6613 17.3883 13.6314 17.4207C13.606 17.4482 13.602 17.4757 13.6032 17.4943C13.6043 17.5168 13.72 18.5455 13.6833 19.0436C13.6697 19.2287 13.6122 20.4331 13.5388 20.6319C13.4108 20.9801 13.6596 21.7478 13.7741 22.0669V22.5716H13.3368C13.2155 22.5716 13.1168 22.6677 13.1168 22.7858C13.1168 22.9039 13.2155 23 13.3368 23H18.8614C19.2625 23 19.5892 22.682 19.5892 22.2915C19.5892 22.0098 19.4194 21.7665 19.1745 21.6523C19.1062 21.3887 18.9048 21.1218 18.4732 21.0075C18.2486 20.9482 17.9095 20.8548 17.5653 20.7318C17.5653 20.7318 16.0565 20.1596 16.3527 18.0748L16.4791 17.2362C16.4786 17.2087 16.3905 17.1862 16.2641 17.1687C16.2433 15.9923 16.0717 14.677 15.5476 13.5874C15.5351 13.5616 15.5255 13.5341 15.5143 13.5077C15.5318 13.4907 15.5492 13.4731 15.5667 13.4561C15.6017 13.4215 15.6367 13.3864 15.6711 13.3518C15.7462 13.2754 15.8206 13.198 15.8934 13.1195C16.0351 12.9673 16.1727 12.8114 16.3065 12.6521C16.5784 12.3275 16.8335 11.9887 17.071 11.6388C17.5659 10.91 17.9862 10.134 18.3349 9.32947C18.5217 8.89835 18.6881 8.45844 18.8348 8.0125C18.9009 7.81204 19.038 7.29141 19.038 7.29141C19.038 7.29141 19.5131 7.27823 19.6406 7.26944C20.6449 7.1964 21.6341 6.98056 22.5825 6.65324C23.4746 6.34515 24.3261 5.9349 25.1312 5.45106C25.3964 5.29179 25.696 5.13747 25.8591 4.86781C26.0431 4.56027 26.0481 4.17199 25.867 3.86224ZM0.666747 11.2654C0.640227 11.2599 0.613708 11.2505 0.588881 11.2368C0.449513 11.1627 0.398731 10.9913 0.475468 10.8562L1.36359 9.28608L1.68803 9.46017L0.666747 11.2654ZM17.0191 22.2114H19.1361C19.144 22.2366 19.1486 22.2635 19.1486 22.2915C19.1486 22.4459 19.0193 22.5716 18.8608 22.5716H17.0197L17.0191 22.2114Z" fill="#6F6EFF"/>
<path d="M16.0018 4.25002C16.2659 4.42301 16.5644 4.54274 16.8764 4.6015L16.8798 4.60205C17.6522 4.74814 18.4653 4.50594 19.0228 3.96498C19.5881 3.41579 19.8364 2.60353 19.6716 1.8429C19.5108 1.10204 18.9725 0.467717 18.2543 0.176644C17.519 -0.121019 16.6614 -0.0386397 16.0007 0.394674C15.3399 0.827988 14.9399 1.5705 14.9472 2.34596C14.954 3.10385 15.3563 3.82714 16.0018 4.25002Z" fill="#6F6EFF"/>
</g>
<path d="M35 11.2063C35 11.2008 34.9994 11.1953 34.9989 11.1898C35.0126 10.7571 34.7677 10.3349 34.3396 10.1365L25.6721 6.11088C25.0933 5.84191 24.3923 6.07946 24.1138 6.63778C23.9996 6.86651 23.9751 7.11509 24.0236 7.34767C24.023 7.36035 24.0213 7.37303 24.0213 7.38625V21.8729V21.9098C24.0213 21.9583 24.027 22.0052 24.0373 22.0509C24.1263 22.5866 24.6093 23 25.1886 23H33.8321C34.4743 23 34.9994 22.4929 34.9994 21.8729C34.9994 21.8685 34.9989 21.8641 34.9989 21.8602C34.9989 21.8558 34.9994 21.8514 34.9994 21.8475V11.2063H35ZM26.3566 8.9306L32.6648 11.8606V20.7463H26.3566V8.9306Z" fill="#6F6EFF"/>
</svg>
