<svg width="4" height="9" viewBox="0 0 4 9" fill="none" xmlns="http://www.w3.org/2000/svg">
<path d="M2.03335 2.03863C2.37878 2.03863 2.65837 1.75911 2.65837 1.4136C2.65837 1.0681 2.37885 0.788574 2.03335 0.788574H2.02726C1.68182 0.788574 1.40527 1.0681 1.40527 1.4136C1.40527 1.75911 1.68784 2.03863 2.03335 2.03863Z" fill="white"/>
<path d="M2.65236 7.03863V3.91363C2.99779 3.91363 3.27739 3.63411 3.27739 3.2886C3.27739 2.9431 2.99786 2.66357 2.65236 2.66357H1.40237C1.05694 2.66357 0.777344 2.9431 0.777344 3.2886C0.777344 3.63411 1.05686 3.91363 1.40237 3.91363V7.03863C1.05694 7.03863 0.777344 7.31815 0.777344 7.66366C0.777344 8.00917 1.05686 8.28869 1.40237 8.28869H2.65236C2.99779 8.28869 3.27739 8.00917 3.27739 7.66366C3.27739 7.31815 2.99786 7.03863 2.65236 7.03863Z" fill="white"/>
</svg>
