<svg width="24" height="23" viewBox="0 0 24 23" fill="none" xmlns="http://www.w3.org/2000/svg">
<path d="M11.7171 8.87276C10.3911 8.87276 9.31832 9.94606 9.31832 11.2726C9.31832 12.5992 10.3911 13.6725 11.7171 13.6725C13.043 13.6725 14.1158 12.5992 14.1158 11.2726C14.1158 9.94606 13.043 8.87276 11.7171 8.87276Z" fill="#F2F2F2"/>
<path d="M11.7201 0C5.47008 0 0.401367 5.07109 0.401367 11.324C0.401367 17.577 5.47008 22.648 11.7201 22.648C17.9701 22.648 23.0388 17.577 23.0388 11.324C23.0388 5.06807 17.9701 0 11.7201 0ZM18.3709 15.0354C18.3709 16.7539 16.9666 18.1619 15.2459 18.1619H8.19127C6.47357 18.1619 5.06627 16.7569 5.06627 15.0354V7.61266C5.06627 5.89416 6.47056 4.4862 8.19127 4.4862H15.2459C16.9636 4.4862 18.3709 5.89115 18.3709 7.61266V15.0354Z" fill="#F2F2F2"/>
<path d="M14.5015 5.50824H8.93863C8.18224 5.50824 7.46804 5.80671 6.92862 6.34638C6.3892 6.88605 6.09087 7.60059 6.09087 8.35734V14.2877C6.09087 15.0444 6.3892 15.759 6.92862 16.2986C7.46804 16.8383 8.18224 17.1368 8.93863 17.1368H14.5015C15.2579 17.1368 15.9721 16.8383 16.5116 16.2986C17.051 15.759 17.3493 15.0444 17.3493 14.2877V8.35734C17.3493 7.60059 17.051 6.88605 16.5116 6.34638C15.9721 5.80671 15.2579 5.50824 14.5015 5.50824ZM11.7412 14.9359C9.71912 14.9359 8.07676 13.2958 8.07676 11.2697C8.07676 9.24674 9.71611 7.60361 11.7412 7.60361C13.7663 7.60361 15.4056 9.24372 15.4056 11.2697C15.4026 13.2958 13.7632 14.9359 11.7412 14.9359ZM15.4629 8.41764C14.9837 8.41764 14.595 8.02871 14.595 7.54934C14.595 7.06997 14.9837 6.68104 15.4629 6.68104C15.942 6.68104 16.3307 7.06997 16.3307 7.54934C16.3307 8.02871 15.942 8.41764 15.4629 8.41764Z" fill="#F2F2F2"/>
</svg>
