<svg width="30" height="37" viewBox="0 0 30 37" fill="none" xmlns="http://www.w3.org/2000/svg">
<path d="M15.6356 16.8919L13.3548 16.9495L13.2973 22.7371L15.8055 22.7947C17.6301 22.5097 18.6 21.4262 18.6 19.6878C18.6 17.918 17.574 17.0056 15.6356 16.8919Z" fill="#5E5E7B"/>
<path d="M17.2822 7.02075C16.9959 6.97691 23.989 1.50845 22.4658 0.683792C21.9699 0.4153 14.7658 1.51256 14.2466 1.23173C12.2096 0.129 8.6 2.46461 8.21918 2.46461C7.36986 2.46461 13.3178 6.91801 12.5082 7.05363C5.40959 8.24129 0 14.4125 0 21.8481C0 30.133 6.71507 36.848 15 36.848C23.2849 36.848 30 30.133 30 21.8481C30 14.3399 24.4836 8.12075 17.2822 7.02075ZM15.1219 24.2467H13.2699V24.9878L13.2986 26.47H16.4918L16.6055 26.6124L16.5205 27.4672H13.326L13.3836 29.6905H11.3589L11.3877 27.4672H9.56301L9.42055 27.3535L9.53425 26.47H11.4164L11.4452 25.1864L11.3603 15.4933L16.1493 15.4645C19.0575 15.4645 20.6822 16.918 20.6822 19.5125C20.6822 22.4796 18.5726 24.2467 15.1219 24.2467Z" fill="#5E5E7B"/>
</svg>
