<svg width="20" height="20" viewBox="0 0 20 20" fill="none" xmlns="http://www.w3.org/2000/svg">
<path fill-rule="evenodd" clip-rule="evenodd" d="M10 20C15.5228 20 20 15.5228 20 10C20 4.47715 15.5228 0 10 0C4.47715 0 0 4.47715 0 10C0 15.5228 4.47715 20 10 20ZM6.25001 14.2858L10 10.5358L13.75 14.2857L14.2857 13.75L10.5358 10.0001L14.2857 6.25009L14.2857 6.25004L14.2857 6.25L13.75 5.71429L10 9.46429L6.25 5.71429L5.71429 6.25001L9.46428 10L5.71429 13.75L5.71434 13.75L5.71429 13.7501L6.25001 14.2858Z" fill="#6F6EFF"/>
</svg>
