<svg width="22" height="54" viewBox="0 0 22 54" fill="none" xmlns="http://www.w3.org/2000/svg">
<path d="M6.4894 10.3093C4.93993 10.3093 3.61294 10.873 2.5005 11.9612C1.38011 13.0963 0.800049 14.4194 0.800049 15.899V29.5208C0.800049 30.0297 0.974861 30.4916 1.38011 30.8674C1.75357 31.2353 2.21444 31.3997 2.73093 31.3997C3.33483 31.3997 3.7957 31.2353 4.16122 30.8674C4.47906 30.4916 4.65387 30.0297 4.65387 29.5208V17.3394H5.65507V51.0575C5.65507 51.7072 5.94113 52.3101 6.4894 52.7719C7.0059 53.2808 7.60185 53.5 8.29315 53.5C9.04008 53.5 9.64398 53.2808 10.1287 52.7719C10.6452 52.3101 10.8836 51.7072 10.8836 51.0575V31.5093H12.0039V51.0575C12.0039 51.7072 12.2662 52.3101 12.7509 52.7719C13.2435 53.2808 13.8713 53.5 14.65 53.5C15.3095 53.5 15.8816 53.2808 16.406 52.7719C16.8908 52.3101 17.1132 51.7072 17.1132 51.0575V17.3394H18.1621V29.5208C18.1621 30.0297 18.329 30.4916 18.6707 30.8674C19.0839 31.2353 19.5606 31.3997 20.0771 31.3997C20.689 31.3997 21.1498 31.2353 21.4915 30.8674C21.8014 30.4916 22 30.0297 22 29.5208V15.899C22 14.4272 21.4597 13.1041 20.3314 11.969C19.2348 10.873 17.9237 10.3171 16.3107 10.3171L6.4894 10.3093Z" fill="#B7B6FF"/>
<path d="M11.4239 9.18981C12.6317 9.18981 13.6965 8.79838 14.5546 7.9842C15.4128 7.14653 15.8498 6.10532 15.8498 4.86056C15.8498 3.67061 15.4128 2.64505 14.5546 1.80739C13.6885 0.930576 12.6317 0.5 11.4239 0.5C10.1525 0.5 9.08776 0.930576 8.29315 1.79956C7.43498 2.64505 7.03768 3.66278 7.03768 4.85273C7.03768 6.10532 7.44293 7.14653 8.29315 7.97637C9.0957 8.79838 10.1684 9.18981 11.4239 9.18981Z" fill="#B7B6FF"/>
</svg>
