<svg width="30" height="36" viewBox="0 0 30 36" fill="none" xmlns="http://www.w3.org/2000/svg">
<path d="M22.1397 5.43743C22.1493 5.41862 22.1603 5.40126 22.1699 5.38245L22.9397 3.68697C23.1027 3.32676 22.9589 2.89421 22.6178 2.72206C22.2767 2.54846 21.8671 2.7018 21.7041 3.06202L20.9342 4.7575C20.926 4.77486 20.9219 4.79367 20.9164 4.81103C20.6397 4.68517 20.3575 4.56799 20.0726 4.45949C20.0781 4.44502 20.0849 4.43056 20.089 4.41464L20.6068 2.615C20.7164 2.23309 20.5123 1.82947 20.1507 1.71229C19.789 1.59656 19.4069 1.81211 19.2959 2.19403L18.7781 3.99367C18.774 4.00669 18.774 4.02115 18.7699 4.03417C18.4918 3.95895 18.211 3.89095 17.9274 3.83164C17.9288 3.82007 17.9329 3.80994 17.9342 3.79837L18.1959 1.93942C18.2507 1.54448 17.9932 1.17703 17.6178 1.11772C17.2425 1.0584 16.8959 1.33327 16.8397 1.7282L16.5795 3.5886C16.5781 3.59873 16.5795 3.60741 16.5781 3.61754C16.3041 3.58716 16.0288 3.56401 15.7507 3.54954C15.7507 3.54231 15.7521 3.53652 15.7521 3.52929V1.65009C15.7521 1.25081 15.4452 0.926758 15.0671 0.926758C14.689 0.926758 14.3822 1.25081 14.3822 1.65009V3.53074C14.3822 3.53508 14.3836 3.54086 14.3836 3.5452C14.0603 3.55967 13.7397 3.58282 13.4219 3.61754C13.4219 3.61609 13.4219 3.61609 13.4219 3.61464L13.1479 1.75714C13.089 1.3622 12.7411 1.09312 12.3658 1.15388C11.9918 1.21609 11.7356 1.58643 11.7945 1.98137L12.0699 3.83453C11.7425 3.90253 11.4192 3.98354 11.1 4.07323L10.5562 2.29963C10.4397 1.91916 10.0534 1.71084 9.69315 1.83381C9.33288 1.95678 9.13562 2.36473 9.25206 2.7452L9.79315 4.51157C9.55753 4.60415 9.32603 4.70108 9.09589 4.80524L8.32877 3.14303C8.16301 2.78426 7.75343 2.63526 7.41233 2.8103C7.0726 2.98535 6.93151 3.4179 7.09726 3.77811L7.86301 5.43598C3.18082 8.11518 0 13.3506 0 19.3716C0 28.121 6.71507 35.2125 15 35.2125C23.2849 35.2125 30 28.121 30 19.3716C30 13.3521 26.8205 8.11808 22.1397 5.43743ZM15 31.1618C8.79589 31.1618 3.76575 25.8497 3.76575 19.2978C3.76575 12.7459 8.79589 7.43381 15 7.43381C21.2041 7.43381 26.2342 12.7459 26.2342 19.2978C26.2342 25.8497 21.2041 31.1618 15 31.1618Z" fill="#5E5E7B"/>
<path d="M15 9.82513C10.0466 9.82513 6.03013 14.0667 6.03013 19.2978C6.03013 24.5289 10.0466 28.7705 15 28.7705C19.9534 28.7705 23.9699 24.5289 23.9699 19.2978C23.9699 14.0667 19.9534 9.82513 15 9.82513ZM15 25.1467C11.9411 25.1467 9.46163 22.5282 9.46163 19.2978C9.46163 16.0674 11.9411 13.449 15 13.449C15.3836 13.449 15.7575 13.491 16.1192 13.5691C15.889 13.9568 15.7534 14.4154 15.7534 14.9072C15.7534 16.3018 16.8246 17.4331 18.1452 17.4331C18.8479 17.4331 19.4767 17.1119 19.9151 16.6027C20.3123 17.4085 20.5383 18.3242 20.5383 19.2964C20.5383 22.5282 18.0589 25.1467 15 25.1467Z" fill="#5E5E7B"/>
</svg>
