<svg width="19" height="19" viewBox="0 0 19 19" fill="none" xmlns="http://www.w3.org/2000/svg">
<path opacity="0.8" fill-rule="evenodd" clip-rule="evenodd" d="M18.75 9.53906C18.75 14.5096 14.7206 18.5391 9.75 18.5391C4.77944 18.5391 0.75 14.5096 0.75 9.53906C0.75 4.5685 4.77944 0.539062 9.75 0.539062C14.7206 0.539062 18.75 4.5685 18.75 9.53906ZM10.9993 12.0388H7.87458V12.6639H10.9993V12.0388ZM12.2499 5.16391H7.25012V6.4139H6.6251V5.16391C6.6251 4.81908 6.90495 4.53889 7.25012 4.53889H12.2499C12.5953 4.53889 12.8748 4.81908 12.8748 5.16391V6.4139H12.2499V5.16391ZM11.6242 10.7889H7.87458V11.4139H11.6242V10.7889ZM5.37503 7.03916H14.1247C14.4701 7.03916 14.7496 7.31926 14.7496 7.66412V11.4141C14.7496 11.7595 14.4701 12.039 14.1247 12.039H12.8747V13.9141C12.8747 14.2596 12.5952 14.5391 12.2498 14.5391H7.25003C6.90486 14.5391 6.62501 14.2596 6.62501 13.9141V12.039H5.37503C5.02986 12.039 4.75 11.7595 4.75 11.4141V7.66412C4.75 7.31926 5.02986 7.03916 5.37503 7.03916ZM7.25003 13.9141H12.2498V10.1641H7.25003V13.9141ZM12.8747 8.28914C12.8747 8.63462 13.1542 8.91416 13.4996 8.91416C13.8451 8.91416 14.1247 8.6346 14.1247 8.28914C14.1247 7.94431 13.8451 7.66412 13.4996 7.66412C13.1542 7.66412 12.8747 7.94433 12.8747 8.28914Z" fill="#5E5E7B"/>
</svg>
