<svg width="13" height="13" viewBox="0 0 13 13" fill="none" xmlns="http://www.w3.org/2000/svg">
<path fill-rule="evenodd" clip-rule="evenodd" d="M6.5 13C10.0899 13 13 10.0899 13 6.5C13 2.91015 10.0899 0 6.5 0C2.91015 0 0 2.91015 0 6.5C0 10.0899 2.91015 13 6.5 13ZM6.94014 9.41219H5.97232V10.4722H6.94014V9.41219ZM4.92667 3.5616C4.53111 4.00668 4.33333 4.59616 4.33333 5.33003H5.19903C5.21524 4.88835 5.28171 4.55029 5.39843 4.31586C5.60594 3.89456 5.98042 3.68392 6.52189 3.68392C6.9596 3.68392 7.27248 3.80623 7.46053 4.05085C7.65183 4.29548 7.74748 4.58427 7.74748 4.91723C7.74748 5.15506 7.68263 5.38439 7.55294 5.60523C7.48161 5.73094 7.38758 5.85155 7.27086 5.96707L6.88178 6.36968C6.50892 6.7536 6.26737 7.09506 6.15713 7.39404C6.04689 7.68963 5.99177 8.08035 5.99177 8.5662H6.85746C6.85746 8.1381 6.90286 7.81534 6.99364 7.59789C7.08767 7.37705 7.29031 7.10865 7.60157 6.79268C8.02955 6.35779 8.31326 6.02823 8.45267 5.80399C8.59534 5.57975 8.66667 5.28756 8.66667 4.92742C8.66667 4.33285 8.47375 3.8453 8.08792 3.46477C7.70532 3.08085 7.19466 2.88889 6.55593 2.88889C5.86532 2.88889 5.32223 3.11313 4.92667 3.5616Z" fill="#6F6EFF"/>
</svg>
