<svg width="20" height="20" viewBox="0 0 20 20" fill="none" xmlns="http://www.w3.org/2000/svg">
<path fill-rule="evenodd" clip-rule="evenodd" d="M10 20C15.5228 20 20 15.5228 20 10C20 4.47715 15.5228 0 10 0C4.47715 0 0 4.47715 0 10C0 15.5228 4.47715 20 10 20ZM12.5853 12.7722L12.8507 12.5068L13.6466 13.2979L13.3813 13.5633C11.4656 15.4789 8.3524 15.4789 6.43674 13.5633C4.52109 11.6476 4.52109 8.53435 6.43674 6.61869C8.3524 4.70304 11.4656 4.70304 13.3813 6.61869L15 5V9.04552H10.9545L12.5853 7.41465C11.1078 5.93714 8.70535 5.93714 7.22783 7.41465C5.75032 8.89217 5.75032 11.2947 7.22783 12.7722C8.70535 14.2497 11.1078 14.2497 12.5853 12.7722Z" fill="#6F6EFF"/>
</svg>
