<svg width="19" height="18" viewBox="0 0 19 18" fill="none" xmlns="http://www.w3.org/2000/svg">
<path opacity="0.8" d="M9.25 0C4.27932 0 0.25 4.02932 0.25 9C0.25 13.9707 4.27932 18 9.25 18C14.2207 18 18.25 13.9707 18.25 9C18.25 4.02932 14.2207 0 9.25 0ZM9.25 12.875C5.23777 12.875 1.98372 9.00795 1.98372 9.00795C1.98372 9.00795 5.23777 5.3125 9.25 5.3125C13.263 5.3125 16.5151 9.00795 16.5151 9.00795C16.5151 9.00795 13.263 12.875 9.25 12.875Z" fill="#5E5E7B"/>
<path opacity="0.8" d="M9.25 6.12451C7.66159 6.12451 6.375 7.41248 6.375 9.0002C6.375 10.5879 7.66159 11.8759 9.25 11.8759C10.8384 11.8759 12.125 10.5893 12.125 9.0002C12.125 7.41248 10.8384 6.12451 9.25 6.12451ZM10.4738 9.11541C9.94849 9.11541 9.52215 8.68907 9.52215 8.16374C9.52215 7.63772 9.94849 7.21208 10.4738 7.21208C10.9991 7.21208 11.4255 7.63772 11.4255 8.16374C11.4262 8.68907 10.9991 9.11541 10.4738 9.11541Z" fill="#5E5E7B"/>
</svg>
