<svg width="19" height="19" viewBox="0 0 19 19" fill="none" xmlns="http://www.w3.org/2000/svg">
<path opacity="0.8" d="M9.25 0.750488C4.27932 0.750488 0.25 4.77981 0.25 9.75049C0.25 14.7212 4.27932 18.7505 9.25 18.7505C14.2207 18.7505 18.25 14.7212 18.25 9.75049C18.25 4.77981 14.2207 0.750488 9.25 0.750488ZM9.25 13.6255C5.23777 13.6255 1.98372 9.75844 1.98372 9.75844C1.98372 9.75844 5.23777 6.06299 9.25 6.06299C13.263 6.06299 16.5151 9.75844 16.5151 9.75844C16.5151 9.75844 13.263 13.6255 9.25 13.6255Z" fill="#5E5E7B"/>
<path opacity="0.8" d="M9.25 6.875C7.66159 6.875 6.375 8.16297 6.375 9.75069C6.375 11.3384 7.66159 12.6264 9.25 12.6264C10.8384 12.6264 12.125 11.3398 12.125 9.75069C12.125 8.16297 10.8384 6.875 9.25 6.875ZM10.4738 9.86589C9.94849 9.86589 9.52215 9.43956 9.52215 8.91423C9.52215 8.38821 9.94849 7.96257 10.4738 7.96257C10.9991 7.96257 11.4255 8.38821 11.4255 8.91423C11.4262 9.43956 10.9991 9.86589 10.4738 9.86589Z" fill="#5E5E7B"/>
</svg>
