<svg width="23" height="23" viewBox="0 0 23 23" fill="none" xmlns="http://www.w3.org/2000/svg">
<path d="M11.6326 0C5.38255 0 0.313843 5.07109 0.313843 11.324C0.313843 17.577 5.38255 22.648 11.6326 22.648C17.8826 22.648 22.9513 17.577 22.9513 11.324C22.9513 5.07109 17.8826 0 11.6326 0ZM16.5717 16.57C16.5476 16.57 16.5205 16.57 16.4963 16.57C15.6646 16.4343 15.0981 15.8464 14.6129 15.3007C14.3387 14.9932 13.9228 14.2967 13.4226 14.3781C12.7144 14.4927 13.064 15.7047 12.7686 16.2233C12.5306 16.6423 11.512 16.567 10.8099 16.4916C8.59494 16.2564 7.46187 15.0746 6.47042 13.8023C5.40967 12.4426 4.58397 11.0225 3.81854 9.45779C3.57144 8.95128 3.24297 8.39353 3.24297 7.76642C3.60157 7.47398 4.1892 7.57347 4.77985 7.57347C5.28009 7.57347 6.0636 7.46192 6.43125 7.64884C6.64822 7.76039 6.87122 8.3483 7.046 8.72517C7.44981 9.58743 7.82349 10.2085 8.31469 10.917C8.52865 11.2245 8.8541 11.8004 9.23682 11.725C9.60748 11.6496 9.64364 10.7361 9.65871 10.1482C9.67679 9.48191 9.65871 8.65582 9.46584 8.30308C9.28503 7.97144 8.95355 7.96239 8.62206 7.76642C8.89931 7.20565 9.66172 7.15138 10.5808 7.15138C11.3523 7.15138 12.4311 7.06395 12.7325 7.57347C13.0399 8.09203 12.8289 9.02666 12.8078 9.72612C12.7867 10.513 12.6511 11.324 13.1905 11.6858C13.6094 11.6406 13.8324 11.2336 14.0735 10.917C14.6039 10.2236 14.9323 9.6206 15.3422 8.72517C15.5109 8.35735 15.6917 7.72723 15.9961 7.60965C16.4602 7.43478 17.1985 7.57045 17.8795 7.57045C18.437 7.57045 19.4285 7.41669 19.6093 7.79959C19.7569 8.11917 19.323 8.92415 19.1874 9.14424C18.6721 9.98841 18.1688 10.5251 17.6113 11.2577C17.3883 11.5501 16.9303 12.0205 16.9574 12.4878C16.9785 12.8435 17.3341 13.1149 17.6113 13.3712C18.208 13.9259 18.6269 14.3299 19.109 14.948C19.2899 15.1801 19.6846 15.6836 19.6454 15.9851C19.5279 16.9348 17.316 16.3439 16.5717 16.57Z" fill="#F2F2F2"/>
</svg>
