<svg width="25" height="25" viewBox="0 0 25 25" fill="none" xmlns="http://www.w3.org/2000/svg">
<path d="M12.2978 10.6007C11.8485 10.6007 11.4752 10.8116 11.171 11.2263C10.8669 11.6411 10.7182 12.1872 10.7182 12.8681C10.7182 13.4177 10.8254 13.8774 11.0431 14.2437C11.2574 14.6136 11.5409 14.7968 11.8934 14.7968C12.4119 14.7968 12.8543 14.5445 13.2276 14.0433C13.6009 13.5386 13.7875 12.9649 13.791 12.3185C13.791 11.7966 13.6389 11.3819 13.3382 11.0708C13.034 10.7528 12.6884 10.6007 12.2978 10.6007Z" fill="white"/>
<path d="M12.4983 0C5.59588 0 0 5.59588 0 12.4983C0 19.4007 5.59588 24.9965 12.4983 24.9965C19.4007 24.9965 24.9965 19.4007 24.9965 12.4983C25 5.59588 19.4041 0 12.4983 0ZM18.9444 15.2772C18.0458 16.3556 16.9777 16.8913 15.7438 16.8913C14.9039 16.8913 14.2679 16.5699 13.8359 15.9201C13.2621 16.5941 12.5743 16.9363 11.769 16.9363C10.8669 16.9363 10.0961 16.5561 9.4532 15.7922C8.81031 15.0318 8.49233 14.026 8.49233 12.7852C8.49233 11.5132 8.85179 10.4728 9.57763 9.6675C10.3 8.86216 11.1676 8.45431 12.1837 8.45431C12.8232 8.45431 13.4108 8.67552 13.95 9.11448L14.0848 8.62367H16.1931L15.5814 13.632C15.5468 13.9741 15.5261 14.2714 15.5261 14.5237C15.5261 14.8382 15.6712 14.9903 15.9616 14.9903C16.4973 14.9903 17.0158 14.6551 17.5135 13.9776C18.0112 13.3036 18.2601 12.4533 18.2601 11.4337C18.2601 9.94401 17.7174 8.71008 16.6286 7.72847C15.5433 6.74685 14.2092 6.25605 12.6296 6.25605C10.9187 6.25605 9.47048 6.854 8.29877 8.04645C7.1236 9.24236 6.53256 10.7321 6.53256 12.5156C6.53256 14.1608 7.08212 15.5917 8.1778 16.8118C9.27693 18.0354 10.8288 18.6437 12.8335 18.6437C14.0917 18.6437 15.3843 18.3603 16.7012 17.7934C17.2128 17.5757 17.7969 17.8142 18.0043 18.3257C18.2048 18.8234 17.9663 19.3903 17.472 19.6011C15.9581 20.2509 14.4131 20.5724 12.837 20.5724C10.224 20.5724 8.15014 19.7774 6.60514 18.1909C5.06705 16.6045 4.29628 14.7104 4.29628 12.5052C4.29628 10.2067 5.10507 8.28494 6.72266 6.73994C8.34025 5.19494 10.3 4.42417 12.5985 4.42417C14.7864 4.42417 16.6183 5.10162 18.0907 6.45998C19.5666 7.81833 20.2993 9.46011 20.2993 11.3853C20.2924 12.9061 19.8431 14.2023 18.9444 15.2772Z" fill="white"/>
</svg>
