<svg width="26" height="26" viewBox="0 0 26 26" fill="none" xmlns="http://www.w3.org/2000/svg">
<path d="M13 3.5C18.2467 3.5 22.5 7.75329 22.5 13H25.5C25.5 6.09644 19.9036 0.5 13 0.5V3.5ZM22.5 13C22.5 18.2467 18.2467 22.5 13 22.5V25.5C19.9036 25.5 25.5 19.9036 25.5 13H22.5ZM13 22.5C7.7533 22.5 3.5 18.2467 3.5 13H0.5C0.5 19.9036 6.09644 25.5 13 25.5V22.5ZM3.5 13C3.5 7.7533 7.75329 3.5 13 3.5V0.5C6.09644 0.5 0.5 6.09644 0.5 13H3.5ZM12 18L17 13L14.8787 10.8787L9.87868 15.8787L12 18ZM17 13L12 8L9.87868 10.1213L14.8787 15.1213L17 13Z" fill="#FF8900"/>
</svg>
