<svg width="25" height="25" viewBox="0 0 25 25" fill="none" xmlns="http://www.w3.org/2000/svg">
<path d="M12.5 0C5.59709 0 0 5.59709 0 12.5C0 19.4029 5.59709 25 12.5 25C19.4029 25 25 19.4029 25 12.5C25 5.59709 19.4029 0 12.5 0ZM20.0704 17.4806C19.7718 18.3228 18.5874 19.0243 17.6408 19.2282C16.9951 19.3665 16.1481 19.4757 13.3058 18.2961C9.66748 16.7888 7.32524 13.0922 7.1432 12.8519C6.96845 12.6117 5.67233 10.8956 5.67233 9.11893C5.67233 7.34223 6.57524 6.47816 6.93689 6.1068C7.23544 5.80097 7.72816 5.66262 8.20146 5.66262C8.35437 5.66262 8.49272 5.6699 8.6165 5.67718C8.98058 5.69175 9.16262 5.71359 9.40291 6.28884C9.70146 7.00728 10.4296 8.78398 10.5146 8.96845C10.6019 9.15049 10.6917 9.39806 10.568 9.63835C10.4515 9.88592 10.3495 9.99514 10.1675 10.2063C9.98544 10.4175 9.81068 10.5777 9.62864 10.8034C9.46116 11 9.27184 11.2112 9.48301 11.5728C9.69417 11.9296 10.4199 13.1165 11.4903 14.068C12.8714 15.2985 13.9927 15.6917 14.3932 15.8592C14.6917 15.983 15.0485 15.9539 15.267 15.7209C15.5437 15.4223 15.8859 14.9272 16.233 14.4393C16.4806 14.0898 16.7937 14.0461 17.1214 14.1699C17.4563 14.2864 19.2233 15.1602 19.5874 15.3422C19.9515 15.5243 20.1917 15.6116 20.2791 15.7646C20.3689 15.915 20.3689 16.6359 20.0704 17.4806Z" fill="white"/>
</svg>
