<svg width="25" height="25" viewBox="0 0 25 25" fill="none" xmlns="http://www.w3.org/2000/svg">
<path d="M12.5 0C5.60673 0 0 5.60673 0 12.5C0 14.8501 0.65424 17.1345 1.89327 19.1155C1.39985 20.8443 0.508041 24.1192 0.500731 24.152C0.453216 24.3202 0.504386 24.5029 0.628655 24.6235C0.756579 24.7442 0.939327 24.7917 1.1038 24.7368L6.05629 23.2127C7.99708 24.3823 10.2193 25 12.5 25C19.3933 25 25 19.3933 25 12.5C25 5.60673 19.3933 0 12.5 0ZM18.5928 17.6389C18.231 18.4101 17.7047 19.0497 16.9444 19.4554C16.7288 19.5724 16.473 19.6089 16.2317 19.682C15.9539 19.598 15.6871 19.5395 15.4423 19.4371C12.8874 18.3772 10.5373 17.0102 8.67325 14.9159C7.6133 13.7244 6.78728 12.3794 6.08553 10.9539C5.75292 10.2778 5.47515 9.57602 5.1864 8.88158C4.9269 8.24561 5.31067 7.58772 5.71272 7.10892C6.09284 6.65936 6.57895 6.31579 7.10526 6.05994C7.51828 5.86257 7.92398 5.97588 8.22368 6.32675C8.87427 7.08333 9.47003 7.87646 9.95614 8.75C10.2522 9.28728 10.1718 9.94518 9.6345 10.3107C9.50292 10.3984 9.38231 10.5044 9.2617 10.6031C9.1557 10.6908 9.05336 10.7822 8.98026 10.8991C8.84503 11.1184 8.83772 11.3743 8.92544 11.6118C9.59064 13.4393 10.7091 14.8611 12.5512 15.625C12.8472 15.7456 13.1396 15.8882 13.4795 15.8516C14.0461 15.7858 14.2325 15.1645 14.6308 14.8355C15.0183 14.5175 15.5154 14.5139 15.9357 14.777C16.356 15.0439 16.7617 15.3253 17.1637 15.614C17.5585 15.8955 17.9532 16.1732 18.3187 16.4949C18.6696 16.8129 18.7902 17.2186 18.5928 17.6389ZM15.2961 11.6849C15.1206 11.6886 15.212 11.6849 15.2778 11.6813C15.011 11.6776 14.8684 11.5278 14.8392 11.2792C14.8173 11.1001 14.8026 10.9211 14.7588 10.7456C14.6747 10.402 14.492 10.0841 14.2032 9.87573C14.068 9.77705 13.9145 9.70395 13.7537 9.65643C13.549 9.59795 13.337 9.61257 13.1323 9.5614C12.9094 9.50658 12.7887 9.32749 12.8216 9.11915C12.8545 8.92909 13.0373 8.7829 13.2456 8.79751C14.5395 8.89254 15.4678 9.5614 15.5994 11.0855C15.6104 11.1915 15.6213 11.3085 15.5958 11.4108C15.5556 11.5826 15.4349 11.6667 15.3107 11.6813C15.3253 11.6813 15.3289 11.6813 15.2961 11.6849ZM14.4883 8.1981C14.0899 8.00439 13.6623 7.88377 13.2237 7.81067C13.0336 7.77778 12.8399 7.7595 12.6499 7.73392C12.4196 7.70102 12.2953 7.55482 12.3063 7.32456C12.3173 7.10892 12.4744 6.95541 12.7083 6.97003C13.4759 7.01389 14.2142 7.17836 14.8977 7.5402C16.2829 8.27485 17.076 9.43348 17.3063 10.9795C17.3173 11.049 17.3319 11.1184 17.3392 11.1879C17.3538 11.3633 17.3611 11.5351 17.3721 11.7654C17.3684 11.8056 17.3648 11.9042 17.3392 11.9993C17.2515 12.3355 16.7434 12.3757 16.6265 12.0395C16.5899 11.9371 16.5863 11.8238 16.5863 11.7178C16.5863 11.0088 16.4327 10.3034 16.0746 9.68933C15.7054 9.04971 15.1462 8.51974 14.4883 8.1981ZM18.7719 12.9788C18.5051 12.9825 18.3845 12.7595 18.3662 12.5183C18.3333 12.0431 18.3077 11.5643 18.242 11.0928C17.8947 8.6038 15.9101 6.54605 13.4357 6.1038C13.0629 6.03801 12.6827 6.01974 12.3026 5.97953C12.0651 5.95395 11.7507 5.93933 11.6996 5.64327C11.6557 5.39474 11.864 5.19737 12.1016 5.18275C12.1674 5.17909 12.2295 5.18275 12.2953 5.18275C15.53 5.27412 12.4379 5.19006 12.299 5.18275C15.6396 5.27778 18.3808 7.49635 18.9693 10.7968C19.068 11.3596 19.1045 11.9335 19.1484 12.5073C19.1667 12.7485 19.0314 12.9751 18.7719 12.9788Z" fill="#D536FD"/>
</svg>
