<svg width="25" height="25" viewBox="0 0 25 25" fill="none" xmlns="http://www.w3.org/2000/svg">
<path d="M12.5 0C5.60673 0 0 5.60673 0 12.5C0 14.8501 0.65424 17.1345 1.89327 19.1155C1.39985 20.8443 0.508041 24.1192 0.500731 24.152C0.453216 24.3202 0.504386 24.5029 0.628655 24.6235C0.756579 24.7442 0.939327 24.7917 1.1038 24.7368L6.05629 23.2127C7.99708 24.3823 10.2193 25 12.5 25C19.3933 25 25 19.3933 25 12.5C25 5.60673 19.3933 0 12.5 0ZM20.3326 17.7047C20.0146 18.6075 18.7463 19.3531 17.7376 19.5724C17.0468 19.7186 16.144 19.8355 13.1031 18.5782C9.21418 16.9664 6.71053 13.019 6.51681 12.7595C6.33041 12.5037 4.94518 10.6689 4.94518 8.76828C4.94518 6.86769 5.91009 5.94664 6.29751 5.54825C6.6155 5.22295 7.14547 5.0731 7.64985 5.0731C7.81433 5.0731 7.96053 5.08041 8.0921 5.08772C8.47953 5.10599 8.6769 5.12792 8.93275 5.74196C9.25073 6.5095 10.0292 8.41009 10.1206 8.6038C10.2156 8.79751 10.3107 9.06433 10.1754 9.32018C10.0512 9.58333 9.94152 9.70395 9.74781 9.9269C9.55409 10.1535 9.36769 10.3253 9.17398 10.5665C8.99488 10.7749 8.79386 11.0015 9.01681 11.3889C9.24342 11.769 10.0183 13.0373 11.1623 14.057C12.6389 15.3728 13.8377 15.7931 14.2654 15.9686C14.5833 16.1001 14.9635 16.0709 15.1974 15.8224C15.4934 15.5044 15.8589 14.9744 16.2317 14.4518C16.4949 14.0789 16.8311 14.0314 17.182 14.163C17.5402 14.2873 19.4298 15.223 19.8173 15.413C20.2047 15.6067 20.4605 15.7018 20.5556 15.8662C20.6542 16.0344 20.6542 16.8019 20.3326 17.7047Z" fill="#47D25C"/>
</svg>
